<?xml version="1.0" encoding="UTF-8" standalone="no"?>
<!DOCTYPE svg PUBLIC "-//W3C//DTD SVG 1.1//EN" "http://www.w3.org/Graphics/SVG/1.1/DTD/svg11.dtd">
<!-- Created with Vectornator (http://vectornator.io/) -->
<svg height="100%" stroke-miterlimit="10" style="fill-rule:nonzero;clip-rule:evenodd;stroke-linecap:round;stroke-linejoin:round;" version="1.1" viewBox="142.507 167.969 450.78 419.829" width="100%" xml:space="preserve" xmlns="http://www.w3.org/2000/svg" xmlns:xlink="http://www.w3.org/1999/xlink">
<defs>
<filter color-interpolation-filters="sRGB" filterUnits="userSpaceOnUse" height="136.232" id="Filter" width="314.797" x="142.507" y="435.448">
<feGaussianBlur in="SourceGraphic" result="Blur" stdDeviation="24.7401"/>
</filter>
<filter color-interpolation-filters="sRGB" filterUnits="userSpaceOnUse" height="230.909" id="Filter_2" width="219.423" x="336.388" y="340.074">
<feGaussianBlur in="SourceGraphic" result="Blur" stdDeviation="24.7401"/>
</filter>
<filter color-interpolation-filters="sRGB" filterUnits="userSpaceOnUse" height="190.326" id="Filter_3" width="253.985" x="293.819" y="287.025">
<feGaussianBlur in="SourceGraphic" result="Blur" stdDeviation="24.7401"/>
</filter>
<filter color-interpolation-filters="sRGB" filterUnits="userSpaceOnUse" height="173.824" id="Filter_4" width="149.652" x="438.007" y="360.262">
<feGaussianBlur in="SourceGraphic" result="Blur" stdDeviation="24.7401"/>
</filter>
<filter color-interpolation-filters="sRGB" filterUnits="userSpaceOnUse" height="152.905" id="Filter_5" width="134.686" x="390.688" y="430.203">
<feGaussianBlur in="SourceGraphic" result="Blur" stdDeviation="24.7401"/>
</filter>
<filter color-interpolation-filters="sRGB" filterUnits="userSpaceOnUse" height="144.237" id="Filter_6" width="293.945" x="157.474" y="414.215">
<feGaussianBlur in="SourceGraphic" result="Blur" stdDeviation="24.7401"/>
</filter>
<filter color-interpolation-filters="sRGB" filterUnits="userSpaceOnUse" height="54.7044" id="Filter_7" width="245.746" x="188.347" y="470.091">
<feGaussianBlur in="SourceGraphic" result="Blur" stdDeviation="7.51818"/>
</filter>
<filter color-interpolation-filters="sRGB" filterUnits="userSpaceOnUse" height="100.762" id="Filter_8" width="78.3163" x="438.268" y="383.308">
<feGaussianBlur in="SourceGraphic" result="Blur" stdDeviation="7.51818"/>
</filter>
<filter color-interpolation-filters="sRGB" filterUnits="userSpaceOnUse" height="58.4757" id="Filter_9" width="37.8646" x="401.098" y="528.278">
<feGaussianBlur in="SourceGraphic" result="Blur" stdDeviation="7.51818"/>
</filter>
<filter color-interpolation-filters="sRGB" filterUnits="userSpaceOnUse" height="60.2161" id="Filter_10" width="39.5938" x="394.496" y="527.582">
<feGaussianBlur in="SourceGraphic" result="Blur" stdDeviation="7.51818"/>
</filter>
<filter color-interpolation-filters="sRGB" filterUnits="userSpaceOnUse" height="53.6026" id="Filter_11" width="39.2573" x="393.44" y="527.93">
<feGaussianBlur in="SourceGraphic" result="Blur" stdDeviation="7.51818"/>
</filter>
<filter color-interpolation-filters="sRGB" filterUnits="userSpaceOnUse" height="52.5583" id="Filter_12" width="40.7236" x="403.112" y="528.278">
<feGaussianBlur in="SourceGraphic" result="Blur" stdDeviation="7.51818"/>
</filter>
<filter color-interpolation-filters="sRGB" filterUnits="userSpaceOnUse" height="49.7737" id="Filter_13" width="41.0355" x="405.237" y="522.709">
<feGaussianBlur in="SourceGraphic" result="Blur" stdDeviation="7.51818"/>
</filter>
<filter color-interpolation-filters="sRGB" filterUnits="userSpaceOnUse" height="75.4696" id="Filter_14" width="91.7928" x="241.826" y="315.44">
<feGaussianBlur in="SourceGraphic" result="Blur" stdDeviation="10.9097"/>
</filter>
<filter color-interpolation-filters="sRGB" filterUnits="userSpaceOnUse" height="84.2317" id="Filter_15" width="99.7987" x="215.372" y="370.724">
<feGaussianBlur in="SourceGraphic" result="Blur" stdDeviation="10.9097"/>
</filter>
<filter color-interpolation-filters="sRGB" filterUnits="userSpaceOnUse" height="97.3736" id="Filter_16" width="145.782" x="157.553" y="482.32">
<feGaussianBlur in="SourceGraphic" result="Blur" stdDeviation="10.9097"/>
</filter>
<filter color-interpolation-filters="sRGB" filterUnits="userSpaceOnUse" height="184.277" id="Filter_17" width="149.226" x="444.061" y="343.428">
<feGaussianBlur in="SourceGraphic" result="Blur" stdDeviation="10.9097"/>
</filter>
<filter color-interpolation-filters="sRGB" filterUnits="userSpaceOnUse" height="112.52" id="Filter_18" width="294.218" x="164.109" y="450.088">
<feGaussianBlur in="SourceGraphic" result="Blur" stdDeviation="20.2762"/>
</filter>
</defs>
<g id="Layer-13">
<g opacity="1">
<path d="M320.468 252.178C320.468 232.674 320.25 211.497 323.047 192.281C323.876 186.585 314.324 182.301 322.31 174.986C348.396 151.091 339.133 195.796 344.045 196.921C351.34 198.591 358.753 194.446 366.148 195.655C394.263 200.254 423.371 198.811 451.613 202.404C482.743 206.365 518.525 200.437 549.235 196.921C550.983 196.72 558.433 196.512 559.549 195.233C560.586 194.047 558.751 188.944 559.181 187.219C560.654 181.317 573.737 179.999 577.232 183.001C583.682 188.54 574.071 200.628 573.548 206.622C571.896 225.537 569.909 264.091 577.232 280.862" fill="#505050" fill-rule="nonzero" opacity="1" stroke="none"/>
<path d="M517.207 348.153C515.352 349.08 522.477 339.714 523.941 338.25C529.828 332.363 535.799 327.325 540.974 320.425C551.298 306.66 549.313 290.29 558.799 276.06C559.675 274.746 570.855 264.969 572.323 264.969C572.365 264.969 580.359 275.456 580.585 276.06C584.48 286.445 589.194 304.423 587.319 315.672C584.924 330.043 567.762 344.923 558.799 355.679C554.61 360.706 553.106 367.413 549.689 373.108C542.65 384.838 527.616 391.784 516.415 399.252" fill="#ffffd7" fill-rule="nonzero" opacity="1" stroke="none"/>
<path d="M265.674 322.009C265.674 320.102 285.236 291.677 288.253 287.151C297.894 272.69 306.484 256.245 318.754 243.975C320.543 242.186 353.482 244.371 358.761 244.371C371.405 244.371 393.9 242.986 406.363 244.371C438.362 247.926 467.127 240.657 498.696 244.371C511.618 245.891 517.718 260.324 530.675 261.404C538.1 262.023 552.112 255.465 559.591 255.465C561.584 255.465 572.884 265.103 573.852 266.553C574.127 266.967 572.749 268.792 572.663 268.93C568.096 276.237 563.611 283.476 559.591 291.113C551.798 305.92 539.264 324.908 527.506 336.666C523.592 340.58 509.681 354.159 509.681 359.64" fill="#ffffd7" fill-rule="nonzero" opacity="1" stroke="none"/>
<path d="M301.969 301.375C299.476 301.406 296.974 301.619 294.5 302.031C271.222 305.911 195.024 423.639 183.406 446.875C117.67 578.348 230.11 549.275 331.406 559.938C354.333 562.351 403.837 576.708 425.031 567.625C449.501 557.138 487.416 504.137 499.188 480.594L495.688 488.25C502.982 476.579 567.505 375.882 567.062 372.344C561.556 328.295 442.925 337.2 417.031 338.562C378.731 340.578 339.361 300.907 301.969 301.375Z" fill="#a9e0ff" fill-rule="nonzero" opacity="1" stroke="none"/>
<path d="M204.357 497.298C268.291 497.298 331.548 509.829 395.453 509.829" fill="#000105" fill-opacity="0" fill-rule="nonzero" filter="url(#Filter)" opacity="0.337209" stroke="none"/>
<path d="M493.96 401.924C459.946 435.938 427.124 470.617 398.238 509.133" fill="#000105" fill-opacity="0" fill-rule="nonzero" filter="url(#Filter_2)" opacity="0.337209" stroke="none"/>
<path d="M378.049 349.364C386.498 346.196 351.329 359.368 356.12 362.243C362.086 365.822 378.71 361.326 381.182 370.597C382.643 376.076 372.664 396.388 377.701 396.703C384.97 397.157 393.508 383.373 401.371 387.305C405.796 389.517 399.188 415.711 400.675 415.499C408.23 414.42 409.291 398.021 417.034 395.31C423.276 393.126 428.159 410.601 430.609 408.886C437.429 404.112 433.431 391.661 439.66 385.912C443.833 382.059 453.514 400.098 460.544 393.57C475.26 379.905 448.918 362.77 480.037 359.806C482.004 359.619 483.982 359.574 485.954 359.458" fill="#000105" fill-opacity="0" fill-rule="nonzero" filter="url(#Filter_3)" opacity="0.337209" stroke="none"/>
<path d="M509.972 422.113C503.541 422.113 524.456 435.261 525.635 432.903C527.052 430.071 519.402 431.616 516.237 431.511C512.41 431.383 500.15 431.428 499.877 437.428C499.304 450.038 511.285 460.466 512.756 472.236" fill="#000105" fill-opacity="0" fill-rule="nonzero" filter="url(#Filter_4)" opacity="0.337209" stroke="none"/>
<path d="M453.583 495.906C453.583 494.629 452.345 491.767 453.583 492.077C454.019 492.186 472.659 534.882 457.76 516.79C455.985 514.635 454.216 512.413 452.538 510.177" fill="#000105" fill-opacity="0" fill-rule="nonzero" filter="url(#Filter_5)" opacity="0.337209" stroke="none"/>
<path d="M235.685 476.065C242.755 483.136 258.399 479.539 267.36 478.85C295.329 476.698 325.293 483.569 353.336 484.419C357.056 484.532 387.633 485.671 388.492 488.248C389.52 491.332 381.97 488.316 378.745 487.9C376.547 487.616 374.338 487.416 372.132 487.204C369.201 486.922 351.103 485.288 348.463 485.115C323.722 483.493 298.016 481.634 273.277 481.634C264.829 481.634 256.618 481.658 248.215 480.938C243.467 480.531 237.425 480.513 237.425 480.59C237.425 480.605 253.586 483.694 253.785 483.723C263.351 485.118 269.711 485.007 279.891 485.115C304.975 485.382 329.172 486.487 354.032 489.988C365.244 491.567 377.959 496.602 389.188 496.602C391.022 496.602 385.726 495.383 383.967 494.861C382.132 494.318 380.261 493.903 378.397 493.469C366.424 490.684 367.689 491.005 352.988 489.292C340.464 487.833 327.944 486.333 315.395 485.115C297.93 483.42 296.469 483.552 278.846 483.723C259.376 483.912 238.674 482.696 219.325 485.115" fill="#000105" fill-opacity="0" fill-rule="nonzero" filter="url(#Filter_6)" opacity="0.337209" stroke="none"/>
<path d="M207.142 491.729C216.711 485.987 242.179 490.452 253.089 492.077C285.895 496.963 320.229 496.315 353.336 498.342C367.583 499.214 382.353 500.568 396.498 502.519C401.12 503.157 415.543 506 415.294 506" fill="#000105" fill-opacity="0" fill-rule="nonzero" filter="url(#Filter_7)" opacity="0.337209" stroke="none"/>
<path d="M497.789 404.709C494.709 395.468 488.114 413.024 482.473 422.809C474.248 437.077 465.969 451.421 457.064 465.275" fill="#000105" fill-opacity="0" fill-rule="nonzero" filter="url(#Filter_8)" opacity="0.337209" stroke="none"/>
<path d="M420.167 547.073C419.633 554.015 420.019 560.998 420.167 567.958" fill="#000105" fill-opacity="0" fill-rule="nonzero" filter="url(#Filter_9)" opacity="0.337209" stroke="none"/>
<path d="M415.294 546.377C411.84 546.377 413.902 565.697 413.902 569.002" fill="#000105" fill-opacity="0" fill-rule="nonzero" filter="url(#Filter_10)" opacity="0.337209" stroke="none"/>
<path d="M413.902 546.725C410.696 550.999 413.078 557.396 413.205 562.737" fill="#000105" fill-opacity="0" fill-rule="nonzero" filter="url(#Filter_11)" opacity="0.337209" stroke="none"/>
<path d="M421.907 547.073C421.907 552.171 423.619 557.146 425.04 562.041" fill="#000105" fill-opacity="0" fill-rule="nonzero" filter="url(#Filter_12)" opacity="0.337209" stroke="none"/>
<path d="M425.04 541.504C422.112 544.433 426.387 549.691 427.477 553.687" fill="#000105" fill-opacity="0" fill-rule="nonzero" filter="url(#Filter_13)" opacity="0.337209" stroke="none"/>
<path d="M296.25 343.098C289.515 340.853 276.959 349.083 270.493 351.104C270.036 351.247 269.1 350.974 269.1 351.452C269.1 356.144 303.309 361.9 306.345 363.635" fill="#000105" fill-opacity="0" fill-rule="nonzero" filter="url(#Filter_14)" opacity="0.337209" stroke="none"/>
<path d="M242.646 398.791C246.098 397.928 245.8 397.905 251.696 398.095C253.348 398.148 256.096 399.211 257.614 399.835C279.785 408.965 239.629 410.955 253.437 419.676C261.959 425.059 283.772 417.37 287.897 427.682" fill="#000105" fill-opacity="0" fill-rule="nonzero" filter="url(#Filter_15)" opacity="0.337209" stroke="none"/>
<path d="M193.567 510.177C193.567 504.894 182.667 537.251 185.213 537.675C194.517 539.226 199.497 515.052 207.838 516.442C208.893 516.618 208.169 518.57 208.534 519.575C212.068 529.292 202.105 543.585 208.186 551.947C209.041 553.121 211.191 551.805 211.667 551.25C217.611 544.316 223.676 525.449 233.248 523.056C239.595 521.469 238.081 545.19 241.95 544.637C244.212 544.314 243.851 540.479 244.735 538.371C247.08 532.778 250.071 525.756 255.177 522.012C261.413 517.438 262.862 557.706 276.062 548.466" fill="#000105" fill-opacity="0" fill-rule="nonzero" filter="url(#Filter_16)" opacity="0.337209" stroke="none"/>
<path d="M566.013 372.337C566.013 368.051 557.446 373.481 555.57 374.078C553.428 374.759 542.691 374.207 542.691 377.21C542.691 382.599 559.421 390.097 555.57 395.659C549.841 403.934 532.597 405.227 532.597 417.588C532.597 431.043 521.504 420.295 516.237 429.074C512.067 436.025 520.751 443.547 518.326 449.611C515.975 455.488 504.203 450.357 500.922 456.921C498.685 461.393 502.375 466.339 500.574 470.844C498.544 475.917 491.273 472.835 488.043 476.065C485.142 478.965 490.264 484.534 489.783 487.9C489.313 491.188 474.399 498.592 471.335 500.431" fill="#000105" fill-opacity="0" fill-rule="nonzero" filter="url(#Filter_17)" opacity="0.337209" stroke="none"/>
<path d="M214.8 500.779C237.075 500.779 259.785 503.22 281.979 504.608C323.628 507.211 366.304 505.029 407.636 511.917" fill="#000105" fill-opacity="0" fill-rule="nonzero" filter="url(#Filter_18)" opacity="0.337209" stroke="none"/>
<path d="M465.292 234.761C464.197 233.774 460.434 229.509 459.578 232.932C458.97 235.365 460.795 237.947 461.178 240.246C462.391 247.522 460.678 260.299 458.893 267.442C458.056 270.79 452.76 274.258 453.408 277.498C453.762 279.269 460.444 276.338 462.549 277.04C470.553 279.708 482.577 280.949 490.888 280.697C495.965 280.543 494.286 280.426 499.116 280.24C509.26 279.85 520.037 284.551 529.969 282.068C532.558 281.421 535.04 287.053 537.51 284.582C538.398 283.695 539.958 263.136 540.71 260.129C542.479 253.05 542.782 245.006 545.509 238.189C546.823 234.903 552.251 229.276 550.309 225.391C548.587 221.948 537.749 229.73 534.082 230.647C526.504 232.541 517.409 230.011 509.629 230.875C500.881 231.847 491.717 232.302 482.889 232.932C478.902 233.217 468.047 237.244 465.292 234.761Z" fill="#a9e0ff" fill-rule="nonzero" opacity="1" stroke="none"/>
<path d="M339.024 225.848C339.029 226.165 335.216 221.16 333.882 225.162C332.592 229.03 335.681 237.363 335.253 242.074C334.519 250.142 320.354 273.503 322.226 278.183C323.944 282.477 338.186 277.955 342.338 277.955C360.01 277.955 378.003 283.985 395.587 280.469C400.921 279.402 403.041 285.128 407.928 280.24C409.08 279.089 407.029 274.176 407.243 272.47C408.007 266.359 409.825 260.361 410.442 254.186C411.105 247.565 424.672 222.693 418.213 217.849C415.4 215.739 410.396 220.104 407.471 220.591C399.006 222.002 390.582 223.925 381.646 222.648C371.267 221.165 358.959 221.726 348.508 223.334C346.699 223.612 338.993 223.995 339.024 225.848Z" fill="#a9e0ff" fill-rule="nonzero" opacity="1" stroke="none"/>
</g>
<path d="M274.236 393.652C275.18 392.211 281.52 390.027 283.562 388.471C285.741 386.809 294.27 375.698 295.989 383.953C296.801 387.852 295.666 391.886 294.368 395.912C293.037 400.039 291.537 404.159 291.788 408.119" fill="#ead087" fill-rule="nonzero" opacity="1" stroke="#ead087" stroke-linecap="round" stroke-linejoin="round" stroke-width="0.586904"/>
<path d="M440.975 368.667C439.912 367.228 440.939 342.155 440.748 338.813C439.789 322.006 437.46 306.485 434.174 290.576C432.754 283.703 424.287 281.298 423.555 275.068C423.378 273.559 430.948 278.03 431.583 278.035C433.604 278.05 432.24 270.784 435.878 271.805C437.524 272.268 441.667 279.775 442.977 279.349C444.337 278.907 450.706 268.359 453.097 271.597C457.441 277.479 446.833 288.665 448.002 295.374C451.241 313.969 452.902 334.062 450.93 352.976C450.101 360.93 445.526 376.376 448.126 384.373" fill="#ead087" fill-rule="nonzero" opacity="1" stroke="#ead087" stroke-linecap="round" stroke-linejoin="round" stroke-width="0.586904"/>
<path d="M447.977 383.251C447.623 383.071 452.831 370.363 453.451 368.645C456.976 358.89 459.914 348.797 462.505 338.748C464.602 330.618 469.823 320.324 468.071 311.844C467.164 307.45 465.511 305.138 463.791 300.967C463.661 300.651 461.882 296.933 462.816 296.823C466.269 296.417 470.599 303.91 474.61 304.513C476.974 304.868 478.997 296.107 481.923 298.418C483.814 299.911 481.313 306.804 483.307 307.82C485.366 308.868 490.363 303.525 492.032 307.213C494.817 313.366 479.349 321.011 477.916 326.116C470.359 353.039 462.29 379.168 452.397 405.421C451.587 407.569 452.106 410.398 451.115 412.344" fill="#ead087" fill-rule="nonzero" opacity="1" stroke="#ead087" stroke-linecap="round" stroke-linejoin="round" stroke-width="0.586904"/>
<path d="M260.452 415.868C257.433 406.616 260.633 401.344 261.625 399.068C264.397 392.705 273.524 392.851 281.217 393.835C293.087 395.352 292.036 416.946 302.452 421.485C312.296 425.774 329.174 430.441 338.343 426.129C379.016 407.002 392.714 344.068 435.842 356.862C443.576 359.156 431.468 351.934 446.698 362.563C456.332 369.287 454.148 361.945 456.332 384.373C459.227 414.108 443.064 421.485 423.552 433.252C387.685 454.883 365.183 454.105 320.708 448.519C309.705 447.137 296.262 443.753 281.217 438.643C276.597 437.074 265.574 431.566 260.452 415.868Z" fill="#ffffff" fill-rule="nonzero" opacity="1" stroke="#c5eaff" stroke-linecap="round" stroke-linejoin="round" stroke-opacity="0" stroke-width="0.586904"/>
<path d="M358.291 421.945C345.594 421.851 310.893 385.134 315.159 373.326C316.597 369.344 329.241 377.412 331.11 378.364C332.64 379.143 329.353 375.338 329.02 373.652C328.207 369.533 327.414 364.954 330.897 361.703C336.766 356.225 342.558 369.588 344.571 372.314C345.066 372.984 344.266 370.675 344.142 369.851C343.788 367.494 345.47 362.608 348.437 363.622C356.608 366.413 363.136 393.463 367.729 400.66C374.281 410.927 385.91 414.552 392.714 423.766" fill="#ffffff" fill-rule="nonzero" opacity="1" stroke="#c5eaff" stroke-linecap="round" stroke-linejoin="round" stroke-opacity="0" stroke-width="0.586904"/>
<path d="M271.255 402.635C271.018 404.927 272.107 409.722 275.109 407.582C281.451 403.061 271.711 398.224 271.255 402.635Z" fill="#000000" fill-rule="nonzero" opacity="1" stroke="#c5eaff" stroke-linecap="round" stroke-linejoin="round" stroke-opacity="0" stroke-width="0.586904"/>
<path d="M328.959 314.232C326.96 320.09 304.498 337.836 304.698 340.37C304.719 340.63 323.183 359.875 324.981 361.929C327.24 364.509 333.886 374.126 337.367 374.709C340.379 375.214 346.833 366.303 348.503 364.15C350.982 360.956 359.063 354.754 359.767 350.554C359.879 349.883 341.975 328.387 339.766 326.174C337.004 323.408 334.085 320.795 331.622 317.737C330.895 316.834 329.223 313.459 328.959 314.232Z" fill="#19718b" fill-rule="nonzero" opacity="1" stroke="#c5eaff" stroke-linecap="round" stroke-linejoin="round" stroke-opacity="0" stroke-width="0.586904"/>
<path d="M329.77 361.298C329.978 361.656 325.015 356.067 323.376 354.396C319.495 350.441 313.08 345.902 310.525 340.964C309.991 339.932 319.804 329.517 321.168 327.645C322.08 326.393 329.5 315.278 330.849 315.504C332.746 315.822 336.006 323.063 336.978 324.56C342.235 332.656 349.377 338.286 356.331 344.817C357.244 345.674 361.157 350.718 360.106 351.949C359.089 353.14 340.244 372.706 339.818 372.635C338.186 372.361 334.028 365.702 332.975 364.415C332.29 363.578 329.608 361.019 329.77 361.298Z" fill="#fef1b7" fill-rule="nonzero" opacity="1" stroke="#c5eaff" stroke-linecap="round" stroke-linejoin="round" stroke-opacity="0" stroke-width="0.586904"/>
<path d="M335.319 366.856C335.421 366.86 334.928 365.626 335.038 365.504C335.164 365.365 336.11 366.071 336.37 365.809C336.526 365.652 335.98 364.409 336.214 364.35C337.105 364.124 337.504 365.09 337.479 363.907C337.476 363.776 337.405 363.349 337.563 363.273C337.973 363.078 338.51 363.712 338.938 363.384C339.503 362.952 338.664 361.678 339.478 361.289C339.882 361.096 340.456 361.79 340.939 361.5C341.351 361.254 340.808 360.049 341.127 359.586C341.506 359.038 342.781 360.042 342.919 359.653C343.072 359.218 342.618 358.694 343.058 358.149C343.348 357.789 344.224 358.886 343.949 357.801C343.937 357.753 343.777 357.171 343.817 357.161C344.169 357.072 345.104 357.65 344.932 356.97C344.905 356.864 344.868 355.761 345.13 355.819C345.553 355.911 345.856 356.3 346.389 355.959C347.102 355.502 347.119 353.387 347.834 353.206C348.614 353.008 351.521 356.983 351.97 357.819C352.061 357.987 349.372 361.138 349.068 361.461C346.455 364.232 342.445 369.748 338.622 370.716C338.216 370.819 337.086 368.981 336.753 368.65C336.525 368.424 335.201 366.851 335.319 366.856Z" fill="#06570d" fill-rule="nonzero" opacity="1" stroke="#c5eaff" stroke-linecap="round" stroke-linejoin="round" stroke-opacity="0" stroke-width="0.586904"/>
<path d="M324.87 348.497C324.384 348.659 326.229 350.245 326.568 350.668C326.96 351.158 327.578 351.652 327.874 352.203C327.921 352.291 327.917 352.944 328.093 352.944C328.275 352.943 328.281 352.265 328.45 352.302C328.512 352.316 329.188 352.905 329.222 352.811C329.318 352.54 328.839 352.253 328.838 352.02C328.837 351.852 329.466 352.096 329.521 351.939C329.591 351.741 328.828 351.677 328.722 351.683C328.203 351.709 327.807 351.322 327.446 350.996C326.881 350.486 325.587 348.258 324.87 348.497Z" fill="#f2b63c" fill-rule="nonzero" opacity="1" stroke="#c5eaff" stroke-linecap="round" stroke-linejoin="round" stroke-opacity="0" stroke-width="0.586904"/>
<path d="M326.002 348.134C325.642 348.265 326.924 349.136 327.197 349.407C327.422 349.63 327.836 350.82 327.964 350.865C328.099 350.913 328.147 350.392 328.2 350.346C328.355 350.212 328.594 350.755 328.769 350.661C329.027 350.522 328.235 349.836 328.313 349.706C328.342 349.657 329.14 349.71 329.118 349.624C329.009 349.191 327.945 349.271 327.628 349.175C327.005 348.988 326.593 347.918 326.002 348.134Z" fill="#f2b63c" fill-rule="nonzero" opacity="1" stroke="#c5eaff" stroke-linecap="round" stroke-linejoin="round" stroke-opacity="0" stroke-width="0.586904"/>
<path d="M330.235 340.865C331.285 339.96 331.956 338.442 332.785 337.282C334.049 335.513 336.909 335.129 336.262 338.084C336.261 338.088 327.852 347.817 327.71 347.931C326.739 348.707 325.369 349.241 324.273 348.373C319.8 344.83 327.225 342.555 329.373 341.451C330.316 340.966 330.697 340.345 331.295 339.495C331.409 339.334 331.991 338.496 332.034 338.666" fill="#ffffff" fill-rule="nonzero" opacity="1" stroke="#c5eaff" stroke-linecap="round" stroke-linejoin="round" stroke-opacity="0" stroke-width="0.586904"/>
<path d="M332.493 313.677C331.264 313.025 322.661 329.189 322.865 331.772C323.211 336.142 346.444 353.781 350.4 357.395C353.49 360.219 356.946 362.712 359.908 365.679C360.242 366.014 364.49 367.675 364.646 367.46C365.434 366.378 366.99 364.269 367.737 362.553C368.828 360.05 373.892 343.801 373.226 342.104C370.447 335.033 355.693 327.967 349.717 323.828C348.429 322.935 333.369 311.652 333.022 311.663C328.294 311.811 327.181 316.794 330.659 320.06" fill="#19718b" fill-rule="nonzero" opacity="1" stroke="#c5eaff" stroke-linecap="round" stroke-linejoin="round" stroke-opacity="0" stroke-width="0.586904"/>
<path d="M330.221 341.053C329.245 340.471 328.676 338.96 327.529 338.277C326.953 337.934 323.612 336.512 323.16 337.456C323.133 337.512 323.131 337.582 323.146 337.643C323.198 337.849 325.15 340.009 325.586 340.268C325.7 340.336 326.007 340.34 325.939 340.454C325.681 340.888 324.891 340.768 325.561 341.621C326.311 342.575 327.664 342.605 328.58 343.151" fill="#ffffff" fill-rule="nonzero" opacity="1" stroke="#c5eaff" stroke-linecap="round" stroke-linejoin="round" stroke-opacity="0" stroke-width="0.586904"/>
<path d="M376.986 418.841C377.099 403.496 370.211 387.102 360.875 375.006C354.239 366.409 344.05 358.134 340.617 347.576C335.311 331.254 364.836 349.05 362.146 354.331C361.128 356.329 360.167 350.252 359.733 348.052C358.923 343.954 360.549 336.688 364.64 334.56C369.074 332.255 371.818 338.854 373.308 341.78C374.117 343.369 375.607 348.388 375.62 346.605C375.678 338.7 381.81 331.258 389.321 338.433C406.049 354.412 406.751 388.703 401.988 409.411C400.641 415.269 396.226 429.984 390.408 433.252" fill="#ffffff" fill-rule="nonzero" opacity="1" stroke="#c5eaff" stroke-linecap="round" stroke-linejoin="round" stroke-opacity="0" stroke-width="0.586904"/>
</g>
</svg>
