<?xml version="1.0" encoding="UTF-8" standalone="no"?>
<!DOCTYPE svg PUBLIC "-//W3C//DTD SVG 1.1//EN" "http://www.w3.org/Graphics/SVG/1.1/DTD/svg11.dtd">
<!-- Created with Vectornator (http://vectornator.io/) -->
<svg height="100%" stroke-miterlimit="10" style="fill-rule:nonzero;clip-rule:evenodd;stroke-linecap:round;stroke-linejoin:round;" version="1.1" viewBox="-10.838 6.4058 336.636 385.438" width="100%" xml:space="preserve" xmlns="http://www.w3.org/2000/svg" xmlns:xlink="http://www.w3.org/1999/xlink">
<defs>
<filter color-interpolation-filters="sRGB" filterUnits="userSpaceOnUse" height="314.201" id="Filter" width="229.157" x="23.4037" y="77.6426">
<feGaussianBlur in="SourceGraphic" result="Blur" stdDeviation="14.8062"/>
</filter>
<filter color-interpolation-filters="sRGB" filterUnits="userSpaceOnUse" height="318.488" id="Filter_2" width="240.721" x="-10.838" y="11.9901">
<feGaussianBlur in="SourceGraphic" result="Blur" stdDeviation="14.8062"/>
</filter>
<filter color-interpolation-filters="sRGB" filterUnits="userSpaceOnUse" height="282.627" id="Filter_3" width="229.911" x="13.1885" y="50.6669">
<feGaussianBlur in="SourceGraphic" result="Blur" stdDeviation="14.8062"/>
</filter>
<filter color-interpolation-filters="sRGB" filterUnits="userSpaceOnUse" height="151.097" id="Filter_4" width="134.126" x="8.18685" y="116.214">
<feGaussianBlur in="SourceGraphic" result="Blur" stdDeviation="13.6822"/>
</filter>
<filter color-interpolation-filters="sRGB" filterUnits="userSpaceOnUse" height="169.529" id="Filter_5" width="136.925" x="-0.246299" y="99.7171">
<feGaussianBlur in="SourceGraphic" result="Blur" stdDeviation="13.6822"/>
</filter>
<filter color-interpolation-filters="sRGB" filterUnits="userSpaceOnUse" height="70.7111" id="Filter_6" width="69.6981" x="231.874" y="117.634">
<feGaussianBlur in="SourceGraphic" result="Blur" stdDeviation="13.6822"/>
</filter>
<filter color-interpolation-filters="sRGB" filterUnits="userSpaceOnUse" height="166.887" id="Filter_7" width="156.553" x="5.70504" y="98.2811">
<feGaussianBlur in="SourceGraphic" result="Blur" stdDeviation="18.7016"/>
</filter>
<filter color-interpolation-filters="sRGB" filterUnits="userSpaceOnUse" height="170.782" id="Filter_8" width="156.839" x="0.000946172" y="99.9085">
<feGaussianBlur in="SourceGraphic" result="Blur" stdDeviation="18.7016"/>
</filter>
<filter color-interpolation-filters="sRGB" filterUnits="userSpaceOnUse" height="94.7531" id="Filter_9" width="95.2963" x="230.502" y="82.856">
<feGaussianBlur in="SourceGraphic" result="Blur" stdDeviation="18.7016"/>
</filter>
<filter color-interpolation-filters="sRGB" filterUnits="userSpaceOnUse" height="96.1427" id="Filter_10" width="96.226" x="9.90294" y="148.837">
<feGaussianBlur in="SourceGraphic" result="Blur" stdDeviation="18.7016"/>
</filter>
</defs>
<g id="Layer-10">
<path d="M74.8783 286.39C96.6349 254.998 123.769 224.335 149.554 196.147C157.813 187.118 166.433 177.948 173.804 168.165C177.009 163.912 180.518 158.502 184.999 155.48C185.516 155.132 186.609 154.118 186.712 154.733C187.295 158.196 163.171 184.825 160.236 188.604C137.186 218.282 110.319 245.811 89.3948 277.053C82.5299 287.302 78.7946 297.464 79.0501 309.819C79.0677 310.669 78.9425 318.796 80.6294 319.206C83.9058 320.001 100.973 290.473 102.899 287.651C124.874 255.44 145.44 221.557 169.592 190.937C176.235 182.514 183.287 174.411 190.53 166.5C192.701 164.13 195.975 157.928 198.01 160.416C199.178 161.843 196.703 163.91 195.633 165.412C189.957 173.384 183.5 180.824 177.188 188.28C150.828 219.418 131.482 253.111 111.283 288.308C104.375 300.346 97.8716 312.956 92.0403 325.559C91.668 326.364 87.4438 340.867 88.7843 340.356C97.0442 337.208 108.473 312.029 113.357 304.736C132.421 276.273 149.414 246.548 166.614 216.948C174.533 203.319 182.158 189.462 190.284 175.964C192.485 172.309 195.026 169.028 197.496 165.558C198.581 164.034 202.401 160.328 200.619 160.896C196.999 162.05 185.85 174.607 183.985 174.037C182.477 173.575 186.263 164.135 186.391 163.75C187.595 160.102 197.187 131.663 194.87 129.459C192.557 127.257 186.242 136.398 185.79 136.962C177.82 146.903 170.165 157.02 162.886 167.474C159.867 171.811 155.201 178.478 154.78 178.031C154.24 177.456 154.832 176.434 155.075 175.683C156.482 171.33 179.685 130.669 166.478 153.311C165.45 155.074 164.546 156.91 163.469 158.643C161.832 161.276 159.968 163.763 158.339 166.401C155.183 171.511 152.3 176.786 149.235 181.952" fill="#c5eaff" fill-opacity="0.346272" fill-rule="nonzero" filter="url(#Filter)" opacity="0.716609" stroke="#ed6d48" stroke-linecap="round" stroke-linejoin="round" stroke-opacity="0.553939" stroke-width="28.9183"/>
<path d="M59.8322 242.038C69.1397 239.589 76.2644 226.226 82.227 219.425C98.7924 200.531 116.251 182.483 133.633 164.352C141.44 156.21 149.004 147.972 156.323 139.392C158.853 136.425 161.183 133.467 163.537 130.364C164.122 129.593 166.207 127.571 165.471 128.2C132.818 156.103 110.428 193.048 81.6757 224.344C71.1575 235.793 65.9484 238.504 52.3314 234.337C47.6335 232.9 45.2522 233.026 42.5602 228.167C36.1625 216.621 47.2224 200.224 53.8677 191.562C71.5594 168.501 92.226 148.036 110.026 125.118C122.123 109.543 135.852 93.4317 145.458 76.1806C146.465 74.3718 153.726 62.0018 155.983 63.6083C157.167 64.4515 157.751 89.9829 158.189 93.1136C159.545 102.81 166.53 113.143 165.947 122.834C165.437 131.305 154.477 137.133 148.912 141.787C133.487 154.688 118.923 169.015 105.981 184.403C96.2784 195.939 88.4274 208.555 79.4344 220.584C78.104 222.364 76.8689 225.81 74.7098 225.286C72.9648 224.862 75.2496 221.707 75.894 220.031C78.156 214.147 80.1069 210.395 82.6882 204.409C89.4276 188.78 96.9189 174.098 106.465 159.96C107.471 158.471 112.931 150.794 114.682 148.696C115.273 147.988 116.501 145.846 116.654 146.755C116.766 147.422 101.907 167.722 100.891 169.172C98.5911 172.453 96.3513 175.776 94.0503 179.056C75.9903 204.802 59.4129 224.311 61.3824 256.716C61.6529 261.167 60.2792 276.082 65.3285 278.804C68.5319 280.53 72.6336 270.529 73.3615 269.179C80.7451 255.48 87.5753 241.851 97.2577 229.536C123.997 195.527 152.394 161.14 174.891 124.087C180.621 114.65 178.868 107.128 173.1 98.4186C172.617 97.6882 167.519 89.8603 166.68 90.3062C166.194 90.5643 166.488 91.3959 166.496 91.9458C166.581 98.0121 166.391 104.009 164.213 109.796C158.885 123.954 147.249 136.294 138.527 148.361C127.841 163.144 117.376 178.214 107.523 193.566C93.6532 215.175 81.7023 237.413 73.9838 261.95" fill="#c5eaff" fill-opacity="0.346272" fill-rule="nonzero" filter="url(#Filter_2)" opacity="0.716609" stroke="#486bed" stroke-linecap="round" stroke-linejoin="round" stroke-width="28.9183"/>
<path d="M70.4391 258.639C91.9102 237.025 109.643 212.133 130.58 189.916C136.363 183.78 142.371 177.965 148.512 172.191C151.244 169.622 153.935 167.009 156.622 164.392C157.328 163.704 159.105 161.472 158.817 162.413C157.033 168.245 137.789 185.744 133.45 190.583C120.218 205.342 108.057 220.772 96.412 236.803C90.8049 244.522 84.9889 251.992 80.1288 260.226C78.5996 262.817 77.1859 265.475 75.7071 268.095C75.223 268.952 73.585 270.98 74.5563 270.816C79.7967 269.935 94.2555 245.162 97.1264 241.049C112.27 219.352 128.157 198.438 142.258 176.001C152.289 160.04 164.799 146.545 176.17 131.686C176.479 131.281 183.025 121.615 182.189 121.021C180.847 120.065 173.811 128.763 173.446 129.156C165.781 137.41 158.281 145.68 151.018 154.303C128.694 180.806 108.037 208.47 88.6628 237.187C86.9526 239.722 69.0698 265.526 69.3344 267.098C69.5576 268.425 71.2696 265.209 72.0497 264.114C73.9398 261.459 75.7352 258.738 77.5888 256.057C83.4846 247.531 89.3755 239.01 95.6202 230.731C115.716 204.088 135.931 177.343 157.236 151.648C163.74 143.803 170.342 136.127 175.94 127.588C177.883 124.623 180.285 121.95 181.552 118.6C181.578 118.53 182.266 115.247 182.964 116.064C184.235 117.551 187.019 128.444 186.488 130.18C186.257 130.934 185.698 128.803 185.441 128.057C185.111 127.098 183.215 118.425 182.893 118.374C182.31 118.283 182.082 119.237 181.74 119.717C176.77 126.698 172.312 133.535 166.532 139.972C146.144 162.679 126.207 185.268 109.263 210.739C102.007 221.647 94.9353 232.728 88.4499 244.118C86.3702 247.77 84.2343 251.353 82.2445 255.044C81.7855 255.896 79.8786 257.74 80.8326 257.58C83.5171 257.128 99.391 231.192 101.429 228.375C103.527 225.475 105.667 222.606 107.787 219.721C114.522 210.554 121.264 201.368 128.237 192.379C139.108 178.366 149.736 164.092 160.922 150.338C163.345 147.361 170.504 135.856 175.132 135.078C177.133 134.741 172.844 138.435 171.6 140.039C167.815 144.917 166.237 146.972 162.08 151.752C154.521 160.444 146.47 168.686 138.795 177.273C119.504 198.856 102.795 222.607 83.6437 244.237C82.0584 246.027 69.3292 261.16 65.1839 257.455C61.6862 254.329 76.8742 232.126 79.0753 229.378C97.3355 206.577 120.797 188.868 139.225 166.169C140.565 164.519 153.618 147.432 154.733 147.703C156.068 148.027 151.41 155.592 148.53 160.007C142.185 169.736 134.804 178.696 127.708 187.872C109.574 211.323 91.773 235.356 76.5529 260.828C75.2181 263.062 65.7321 275.926 69.2052 279.99C70.8201 281.88 74.7512 281.469 76.8458 281.692C94.796 283.608 104.301 263.376 112.378 249.744C114.237 246.607 116.021 243.425 117.915 240.309C134.634 212.817 152.25 185.007 165.737 155.734C171.024 144.257 175.344 132.046 175.927 119.316C176.082 115.933 173.692 105.141 175.342 102.178C175.808 101.341 182.722 115.061 183.225 116.25C187.877 127.24 189.649 139.406 191.625 151.148" fill="#c5eaff" fill-opacity="0.346272" fill-rule="nonzero" filter="url(#Filter_3)" opacity="0.716609" stroke="#ed6d48" stroke-linecap="round" stroke-linejoin="round" stroke-opacity="0.553939" stroke-width="28.9183"/>
<g opacity="1">
<path d="M66.8456 201.615C63.4694 199.65 59.0601 197.977 56.8042 194.362C46.7328 178.221 71.0163 144.647 89.8706 160.546C106.375 174.463 78.1619 223.549 54.3573 205.675C33.346 189.898 61.568 147.955 85.4581 159.151C109.564 170.449 90.5533 212.896 77.8681 225.083C73.5425 229.238 65.2826 234.744 58.6669 231.75C31.7573 219.574 41.5633 155.432 70.8293 152.72C77.6002 152.093 81.6621 153.555 88.0144 155.415C94.8505 157.417 103.429 158.854 106.471 166.364C114.434 186.023 78.7182 229.128 56.8973 215.782C47.543 210.06 49.729 196.67 51.5799 187.857C57.3823 160.23 100.472 128.39 105.674 173.531C106.284 178.822 105.437 184.215 103.533 189.16C101.027 195.664 96.9251 201.626 93.2394 207.499" fill="#e1ca34" fill-opacity="0.25" fill-rule="nonzero" filter="url(#Filter_4)" opacity="1" stroke="#e1ca34" stroke-linecap="round" stroke-linejoin="round" stroke-width="1"/>
<path d="M69.5408 184.43C69.002 184.948 69.6375 169.333 75.1261 172.919C80.3305 176.318 69.3193 191.018 66.5094 185.806C63.6578 180.516 73.2329 165.002 79.0896 170.647C86.9764 178.249 71.2163 203.918 65.7774 209.299C62.164 212.874 57.1087 213.728 54.4329 208.419C43.9333 187.587 69.5384 141.558 94.6825 161.556C109.981 173.724 79.6795 218.928 63.2316 212.513C52.8544 208.466 55.7011 189.715 57.0553 181.829C60.0189 164.571 75.9718 131.899 98.3122 149.875C106.172 156.199 99.3698 171.253 96.4416 178.047C90.4906 191.856 82.352 205.28 68.2081 211.829C62.6834 214.387 54.3549 216.296 49.9524 210.419C44.4934 203.131 46.5035 192.248 47.9979 184.129C51.7487 163.748 63.9731 139.23 88.5081 150.332C90.8203 151.378 93.1738 152.573 94.957 154.379C100.807 160.304 98.4635 170.742 96.4521 177.525C91.0736 195.663 81.3302 214.117 66.3537 226.158C59.4488 231.709 47.1923 239.205 39.2284 230.708C31.7985 222.78 34.6643 209.235 37.0965 200.235C42.4485 180.432 52.739 159.996 67.4484 145.469C87.2389 125.924 100.101 133.312 96.8079 159.771C96.2361 164.365 95.2405 168.898 94.3139 173.434C92.4688 182.466 90.3532 191.442 88.5478 200.483" fill="#e1ca34" fill-opacity="0.25" fill-rule="nonzero" filter="url(#Filter_5)" opacity="1" stroke="#e1ca34" stroke-linecap="round" stroke-linejoin="round" stroke-width="1"/>
<path d="M266.867 152.339C266.771 152.772 266.676 153.206 266.58 153.639" fill="#e1ca34" fill-opacity="0.25" fill-rule="nonzero" filter="url(#Filter_6)" opacity="1" stroke="#e1ca34" stroke-linecap="round" stroke-linejoin="round" stroke-width="1"/>
<path d="M96.1368 160.671C100.189 154.849 88.3706 151.549 82.8501 152.439C69.5777 154.578 48.5231 182.543 60.1932 194.691C64.2805 198.945 70.0909 194.502 73.9503 192.485C84.4882 186.978 98.5034 175.48 106.087 165.964C108.461 162.985 113.854 152.068 109.038 149.045C106.861 147.679 102.001 148.325 99.6438 148.596C80.1176 150.837 68.0686 170.274 61.0055 186.74C58.6469 192.239 54.9536 200.165 60.1066 205.529C62.9632 208.502 66.7216 201.976 67.9161 200.331C73.9775 191.979 79.482 183.525 86.0449 175.488C90.3142 170.26 95.4001 165.077 98.9071 159.29C98.9322 159.249 100.184 157.29 99.6043 157.084C97.7641 156.429 93.8824 158.288 92.1291 158.632C75.8202 161.837 67.7226 173.363 61.2509 187.529C59.9396 190.399 53.9648 199.785 57.937 203.004C61.5915 205.966 68.6149 193.536 70.1776 191.756C80.9937 179.437 91.7456 167.707 103.536 156.379C104.333 155.614 110.141 146.276 106.362 145.727C87.8837 143.04 66.7866 169.24 59.2511 183.048C55.8201 189.335 55.2483 193.302 55.2452 200.468C55.245 200.99 55.67 209.535 55.8506 209.361C56.8171 208.433 60.951 190.795 62.1516 188.2C67.6726 176.268 87.7196 161.849 99.9934 157.223C103.086 156.057 111.669 152.627 114.923 155.171C116.221 156.186 101.579 158.013 100.628 158.149C92.1184 159.372 85.069 162.854 78.8651 168.814C69.2567 178.045 63.0608 188.325 60.4514 201.356C60.3051 202.087 58.7739 212.949 57.5997 213.314C55.8953 213.845 57.5713 209.73 57.8376 207.965C58.8776 201.071 61.7318 193.699 64.3893 187.331C71.3264 170.706 82.5542 162.31 99.6852 159.567C100.35 159.461 107.498 156.386 108.492 156.74C110.244 157.363 101.479 165.028 101.403 165.087C99.8698 166.264 98.178 167.222 96.6352 168.387C90.8485 172.754 85.8851 177.952 80.7992 183.088C72.1624 191.811 67.1315 200.308 60.9184 210.638C60.0588 212.068 57.0669 218.744 54.7667 217.829C50.4425 216.107 55.1694 201.179 55.6656 199.04C59.978 180.455 71.1085 172.147 86.552 163.222C87.5548 162.642 103.283 150.435 105.012 154.45C105.922 156.563 97.9612 160.078 97.0533 160.559C88.5513 165.062 76.011 169.98 69.9379 177.647C66.65 181.798 63.8848 188.986 62.8146 194.221C62.6853 194.853 62.8584 203.671 60.984 200.845C59.0549 197.935 60.6796 190.355 61.123 187.396C63.1331 173.98 69.4651 162.399 83.1135 158.843C88.6023 157.413 94.2081 157.166 99.855 157.612C101.745 157.761 107.015 157.567 105.45 158.638C103.35 160.076 99.1983 159.796 96.7974 160.293C88.9271 161.923 73.2961 165.658 68.3376 172.783C62.1164 181.721 66.5317 191.31 68.561 200.735C69.1408 203.428 67.9391 209.264 64.2945 205.09C53.708 192.966 70.1009 164.097 82.842 159.36C86.0317 158.174 99.928 150.618 101.181 156.593" fill="#e1ca34" fill-opacity="0.25" fill-rule="nonzero" filter="url(#Filter_7)" opacity="1" stroke="#e1ca34" stroke-linecap="round" stroke-linejoin="round" stroke-width="1"/>
<path d="M50.2397 209.118C48.5507 203.691 60.0532 198.738 62.6396 196.437C66.1463 193.319 67.8062 188.585 70.8358 184.978C77.7996 176.689 86.0228 166.638 94.9645 160.517C99.6933 157.281 103.903 153.517 108.367 149.946C108.665 149.707 110.017 148.732 109.448 148.139C105.621 144.156 92.6345 153.507 89.7089 155.58C82.8347 160.451 75.0646 164.015 68.9173 169.921C60.4447 178.061 56.2689 190.413 51.9684 201.056C49.3629 207.504 47.3944 214.242 47.2549 221.204C47.2504 221.428 47.7535 223.434 47.8631 223.437C48.2374 223.444 48.3798 222.877 48.5342 222.536C50.8996 217.308 53.9517 212.532 56.5425 207.416C64.2326 192.231 77.1025 179.482 89.7136 168.379C94.6008 164.076 98.0878 159.756 102.262 154.787C103.398 153.434 107.106 147.696 107.072 149.398" fill="#e1ca34" fill-opacity="0.25" fill-rule="nonzero" filter="url(#Filter_8)" opacity="1" stroke="#e1ca34" stroke-linecap="round" stroke-linejoin="round" stroke-width="1"/>
<path d="M277.756 130.355C278.018 130.273 278.281 130.192 278.544 130.11" fill="#e1ca34" fill-opacity="0.25" fill-rule="nonzero" filter="url(#Filter_9)" opacity="1" stroke="#e1ca34" stroke-linecap="round" stroke-linejoin="round" stroke-width="1"/>
</g>
<g opacity="1">
<path d="M70.287 171.046C51.6304 183.827 70.8801 206.213 88.5216 193.059C102.285 182.796 83.3105 162.124 70.287 171.046Z" fill="#e1ca34" fill-rule="nonzero" opacity="1" stroke="#e1ca34" stroke-linecap="round" stroke-linejoin="round" stroke-width="1"/>
<path d="M51.4876 198.703C53.5303 197.386 56.347 195.681 58.6193 194.786" fill="#e1ca34" fill-opacity="0.25" fill-rule="nonzero" opacity="1" stroke="#e1ca34" stroke-linecap="round" stroke-linejoin="round" stroke-width="1"/>
<path d="M49.3203 183.991C51.3682 183.622 54.145 183.544 56.2313 183.729" fill="#e1ca34" fill-opacity="0.25" fill-rule="nonzero" opacity="1" stroke="#e1ca34" stroke-linecap="round" stroke-linejoin="round" stroke-width="1"/>
<path d="M60.7088 170.889C59.8949 168.824 56.374 168.008 55.526 165.856" fill="#e1ca34" fill-opacity="0.25" fill-rule="nonzero" opacity="1" stroke="#e1ca34" stroke-linecap="round" stroke-linejoin="round" stroke-width="1"/>
<path d="M72.5836 162.457C71.7357 160.305 71.3127 157.071 71.5177 154.755" fill="#e1ca34" fill-opacity="0.25" fill-rule="nonzero" opacity="1" stroke="#e1ca34" stroke-linecap="round" stroke-linejoin="round" stroke-width="1"/>
<path d="M84.8967 165.911C86.0777 163.194 86.4531 160.031 87.2378 157.175" fill="#e1ca34" fill-opacity="0.25" fill-rule="nonzero" opacity="1" stroke="#e1ca34" stroke-linecap="round" stroke-linejoin="round" stroke-width="1"/>
<path d="M90.5896 170.99C91.8718 170.921 98.4167 165.894 98.52 164.727" fill="#e1ca34" fill-opacity="0.25" fill-rule="nonzero" opacity="1" stroke="#e1ca34" stroke-linecap="round" stroke-linejoin="round" stroke-width="1"/>
</g>
<path d="M158.879 144.951C162.593 143.795 164.12 138.415 167.15 136.236C175.164 130.473 181.52 124.181 190.216 119.198C194.337 116.836 201.891 105.757 207.325 105.866C211.713 105.954 208.043 109.162 210.252 111.691C212.469 114.23 198.55 132.294 195.324 133.589C179.812 139.82 185.47 159.133 193.92 179.082C199.018 191.116 209.759 176.913 202.793 187.576C199.848 192.086 185.299 217.403 181.766 221.549C174.639 229.911 166.617 234.22 161.452 244.65C145.097 277.669 130.172 312.903 110.106 343.399C106.665 348.628 105.125 355.101 103.622 360.639C103.348 361.649 101.356 360.768 100.601 361.493C98.949 363.08 97.1675 366.796 95.883 368.842C94.7769 370.605 93.8042 374.68 92.4754 375.957C91.7252 376.678 90.7455 375.755 90.2692 375.26C83.769 368.494 81.0315 357.699 76.4165 349.646C71.1416 340.441 68.052 329.898 63.9479 320.142C63.1111 318.152 58.4183 312.907 60.8752 310.546C61.6629 309.789 71.0755 319.975 67.0339 322.554C65.6174 323.458 58.5188 311.312 60.1047 316.408" fill="#996633" fill-rule="nonzero" opacity="1" stroke="#996633" stroke-linecap="round" stroke-linejoin="round" stroke-width="1.74071"/>
<g opacity="1">
<path d="M40.1555 229.231C35.7177 210.249 40.4978 222.93 50.7522 217.661C53.0277 216.491 50.7083 212.457 51.6913 210.874C51.9989 210.379 54.5694 211.661 55.3052 211.208C56.2228 210.644 55.1785 206.578 55.8296 205.529C57.1575 203.391 62.5983 203.98 63.7685 201.316C64.3363 200.023 63.0421 198.09 63.8782 196.744C65.2913 194.469 67.5823 196.414 69.4286 195.278C70.3755 194.696 69.4869 190.689 70.432 189.487C71.5985 188.004 75.3985 189.868 77.1269 188.595C78.9733 187.236 78.0833 184.299 79.6418 182.787C81.009 181.462 82.6985 183.028 84.027 182.099C85.9716 180.739 84.3981 175.528 87.0622 173.476C88.5632 172.32 92.081 172.839 92.8096 172.132C93.9054 171.069 93.1998 168.591 94.5158 167.187C96.255 165.332 99.8555 164.914 101.113 162.277C102.402 159.575 103.056 157.028 104.729 154.696C105.94 153.009 108.252 153.571 109.773 152.507C112.8 150.391 112.474 147.133 115.933 145.005C116.101 144.902 116.249 144.75 116.338 144.574C117.902 141.455 115.891 137.403 117.61 134.174C118.916 131.721 121.964 134.181 123.358 132.83C124.544 131.679 121.562 128.602 123.084 127.338C124.926 125.807 128.345 127.511 130.492 126.616C132.622 125.728 133.025 121.502 134.811 119.881C136.828 118.051 141.364 121.268 144.019 121.096C148.139 120.83 142.547 124.287 146.124 124.172C153.207 123.943 159.348 130.967 161.476 137.383C163.206 142.596 162.815 136.148 162.339 141.304C162.125 143.622 161.699 149.502 161.699 149.502C161.699 149.502 158.986 154.565 155.445 171.234C150.722 193.465 137.727 207.305 123.358 225.336C110.399 241.598 105.312 273.948 90.9559 289.262C86.7842 293.712 68.9618 320.951 62.1483 321.171C56.0451 321.368 53.4134 293.142 50.943 288.334C43.85 274.53 35.4941 260.965 28.3107 246.985C27.7063 245.809 30.272 242.411 29.8407 240.566" fill="#15402a" fill-rule="nonzero" opacity="1" stroke="#15402a" stroke-linecap="round" stroke-linejoin="round" stroke-width="1"/>
<path d="M60.7319 273.92C61.0864 275.085 61.5132 280.922 62.2006 281.289C63.1941 281.819 63.8098 277.644 64.2268 280.827C64.3769 281.973 63.911 289.321 64.7871 289.788C65.6153 290.23 67.0237 287.347 67.4724 287.423C68.6536 287.624 67.2131 295.828 67.9895 296.243C68.3266 296.422 69.6007 294.829 69.8126 294.604C71.3904 292.932 79.6584 286.641 79.5437 284.369C79.4649 282.808 73.2285 284.978 72.8614 283.771C72.6971 283.231 75.1304 281.778 74.0993 281.228C73.5992 280.961 66.1553 280.104 66.6596 279.158C66.9096 278.689 70.0047 278.198 69.3202 277.729C68.024 276.841 60.394 272.81 60.7319 273.92Z" fill="#103422" fill-rule="nonzero" opacity="1" stroke="#103422" stroke-linecap="round" stroke-linejoin="round" stroke-width="1"/>
<path d="M65.9271 260.731C67.0637 262.042 66.882 264.178 67.1033 265.867C67.1162 265.966 66.8901 267.281 67.0663 267.272C67.4364 267.253 68.651 265.867 68.8216 266.428C68.9974 267.006 69.1926 273.885 69.7021 273.899C70.1187 273.91 71.1394 270.868 71.6484 271.139C71.8875 271.267 71.8759 278.092 72.9785 277.545C73.7479 277.163 81.3878 270.543 80.8188 269.742C79.9482 268.515 75.956 269.594 75.0542 268.091C74.9911 267.986 77.793 264.795 77.1113 264.679C76.2921 264.54 75.0278 265.101 74.1489 265.116C68.9913 265.205 73.4219 263.744 73.0466 262.511C73.0036 262.37 64.8329 259.469 65.9271 260.731Z" fill="#103422" fill-rule="nonzero" opacity="1" stroke="#103422" stroke-linecap="round" stroke-linejoin="round" stroke-width="1"/>
<path d="M90.7531 262.462C88.7002 262.408 86.5088 261.537 85.5859 259.469C85.3339 258.904 86.5713 257.756 85.9616 257.652C84.3002 257.37 83.4329 257.751 82.5928 255.737C82.132 254.631 81.8816 253.349 82.636 252.318C83.015 251.801 84.7341 250.906 84.1203 251.093C81.3591 251.933 76.9878 248.447 78.5529 245.513C80.3292 242.182 84.1324 246.974 84.7116 246.425C85.511 245.666 84.8407 244.464 86.5039 244.177C88.3076 243.865 103.666 262.802 90.7531 262.462Z" fill="#103422" fill-rule="nonzero" opacity="1" stroke="#103422" stroke-linecap="round" stroke-linejoin="round" stroke-width="1"/>
<path d="M93.1588 227.138C92.4367 226.62 93.6052 228.86 93.8639 229.71C94.2806 231.079 94.6974 232.448 95.1141 233.818C95.673 235.654 97.44 246.184 99.3634 246.764C99.578 246.828 104.816 240.939 105.294 240.315C105.657 239.843 109.6 236.411 109.476 236.257C108.143 234.594 97.4246 230.188 94.4244 227.991C94.2163 227.839 93.3299 227.261 93.1588 227.138Z" fill="#103422" fill-rule="nonzero" opacity="1" stroke="#103422" stroke-linecap="round" stroke-linejoin="round" stroke-width="1"/>
<path d="M100.491 214.615C103.776 216.802 103.609 221.493 105.135 225.042C105.253 225.317 105.235 225.841 105.535 225.848C105.828 225.856 110.119 220.031 109.68 219.634C109.07 219.083 99.3092 213.828 100.491 214.615Z" fill="#103422" fill-rule="nonzero" opacity="1" stroke="#103422" stroke-linecap="round" stroke-linejoin="round" stroke-width="1"/>
<path d="M122.601 216.321C122.773 215.999 122.769 216.138 122.232 216.124C120.121 216.068 117.714 215.171 116.11 213.808C113.362 211.475 104.838 203.479 110.068 199.551C114.732 196.048 123.139 201.22 125.17 205.944C125.968 207.8 127.047 211.768 125.995 213.741C125.421 214.815 121.608 218.184 122.601 216.321Z" fill="#103422" fill-rule="nonzero" opacity="1" stroke="#103422" stroke-linecap="round" stroke-linejoin="round" stroke-width="1"/>
<path d="M50.8261 275.381C50.8342 275.379 48.2531 274.202 47.6116 273.715C46.1818 272.63 41.2069 266.393 44.3452 264.936C49.3061 262.632 52.9995 267.423 54.2465 271.56C54.8006 273.398 54.0237 274.459 52.5885 275.315C52.0836 275.616 50.2611 275.543 50.8261 275.381Z" fill="#103422" fill-rule="nonzero" opacity="1" stroke="#103422" stroke-linecap="round" stroke-linejoin="round" stroke-width="1"/>
<path d="M121.597 174.152C122.964 174.461 122.36 180.344 123.688 180.574C123.873 180.606 124.662 179.04 125.05 178.923C125.36 178.83 126.472 184.155 126.621 184.649C126.658 184.77 127.097 186.494 127.178 186.496C127.383 186.502 128.955 183.136 129.221 184.02C129.491 184.914 128.419 192.906 130.129 193.201C132.197 193.558 132.547 189.733 134.074 188.292C134.728 187.674 139.271 183.587 138.743 182.7C138.097 181.618 131.87 184.065 131.294 182.155C131.082 181.452 134.008 179.654 133.635 179.125C132.875 178.047 126.305 178.972 125.758 177.16C125.531 176.406 127.922 175.679 127.888 174.968C127.884 174.899 120.846 173.982 121.597 174.152Z" fill="#103422" fill-rule="nonzero" opacity="1" stroke="#103422" stroke-linecap="round" stroke-linejoin="round" stroke-width="1"/>
<path d="M145.376 176.743C145.898 176.31 142.051 175.984 141.227 175.513C138.666 174.053 137.377 171.454 139.7 169.373C142.941 166.468 147.313 171.21 148.581 173.96C150.533 178.192 145.069 176.997 145.376 176.743Z" fill="#103422" fill-rule="nonzero" opacity="1" stroke="#103422" stroke-linecap="round" stroke-linejoin="round" stroke-width="1"/>
<path d="M134.462 152.731C134.217 155.013 139.527 164.704 141.812 164.829C142.235 164.852 146.586 157.895 146.039 157.419C144.907 156.435 134.655 150.921 134.462 152.731Z" fill="#103422" fill-rule="nonzero" opacity="1" stroke="#103422" stroke-linecap="round" stroke-linejoin="round" stroke-width="1"/>
<path d="M75.809 213.768C74.2881 212.879 75.077 217.864 76.4064 219.02C76.5864 219.176 78.1823 217.518 78.3021 217.586C78.8712 217.911 77.3523 224.642 78.1397 224.799C78.4415 224.859 79.6564 222.537 79.8547 223.262C80.1169 224.221 79.7803 228.915 80.4005 228.604C80.7199 228.444 80.9739 227.882 81.1998 227.623C81.7686 226.969 89.2813 219.289 88.6384 218.572C88.4224 218.331 83.3337 219.81 83.1937 219.299C83.1732 219.223 85.6027 217.08 85.1016 216.794C84.6704 216.548 79.677 218.152 79.3986 217.134C79.3346 216.9 81.6058 214.56 81.2288 214.345C79.8006 213.53 78.1794 215.154 75.809 213.768Z" fill="#103422" fill-rule="nonzero" opacity="1" stroke="#103422" stroke-linecap="round" stroke-linejoin="round" stroke-width="1"/>
<path d="M56.4613 259.022C56.4209 259.398 57.6326 265.489 57.8338 265.434C58.1875 265.337 58.6831 262.785 59.2771 262.904C61.7502 263.396 57.0826 271.13 59.5149 270.465C60.514 270.192 60.6431 267.563 61.5514 267.315C63.2569 266.848 61.1234 273.368 62.6649 272.501C63.7085 271.915 70.3076 265.935 69.5625 264.819C69.1196 264.155 63.858 266.268 63.5368 265.094C63.4271 264.693 66.2873 262.84 65.8316 262.331C64.9254 261.32 59.997 263.456 59.1861 262.013C58.7926 261.313 62.2716 260.351 61.7005 259.495C60.7267 258.037 56.6491 257.278 56.4613 259.022Z" fill="#254e39" fill-rule="nonzero" opacity="1" stroke="#254e39" stroke-linecap="round" stroke-linejoin="round" stroke-width="1"/>
<path d="M73.003 223.306C71.3875 223.285 74.0389 226.536 74.4646 228.092C74.695 228.934 75.5395 225.262 76.0244 225.988C77.4646 228.145 76.0172 233.768 76.0172 233.768C76.0172 233.768 77.2151 229.288 78.1179 230.296C79.0931 231.384 76.3991 236.98 77.8912 237.832C78.0461 237.92 81.4796 231.541 81.7057 231.145C81.9438 230.727 85.1789 226.739 84.8118 226.33C84.342 225.805 80.2309 228.986 79.6522 228.656C78.5076 228.003 82.7556 225.875 81.611 225.222C80.288 224.468 77.7834 227.47 76.7218 226.865C76.3114 226.631 79.3129 224.63 78.5132 223.934C77.3722 222.942 74.9026 223.331 73.003 223.306Z" fill="#254e39" fill-rule="nonzero" opacity="1" stroke="#254e39" stroke-linecap="round" stroke-linejoin="round" stroke-width="1"/>
<path d="M72.9888 247.79C73.5394 248.507 80.151 262.165 80.2833 262.191C80.8391 262.302 87.3749 254.632 87.3617 254.612C87.2319 254.418 86.2924 254.417 86.0711 254.355C82.9461 253.478 78.8337 252.657 76.3133 250.465C75.4458 249.711 72.544 247.212 72.9888 247.79Z" fill="#254e39" fill-rule="nonzero" opacity="1" stroke="#254e39" stroke-linecap="round" stroke-linejoin="round" stroke-width="1"/>
<path d="M44.8703 262.65C45.1416 264.21 36.3939 252.901 42.8435 252.451C47.0636 252.157 53.4 258.562 52.1028 262.883C50.7956 267.238 44.7623 262.028 44.8703 262.65Z" fill="#254e39" fill-rule="nonzero" opacity="1" stroke="#254e39" stroke-linecap="round" stroke-linejoin="round" stroke-width="1"/>
<path d="M101.503 201.478C101.347 199.359 101.963 208.212 101.973 208.214C102.374 208.294 103.036 205.826 103.533 206.109C104.751 206.804 102.393 213.612 103.475 214.819C104.401 215.853 106.986 210.553 106.298 211.759C105.67 212.861 105.636 218.754 106.614 219.604C106.676 219.658 107.602 218.661 107.697 218.545C110.214 215.455 112.706 212.283 114.657 208.862C114.712 208.767 114.804 208.612 114.722 208.54C114.184 208.072 108.112 209.467 108.025 209.151C107.991 209.027 111.163 205.671 110.474 205.278C109.736 204.858 105.253 207.381 104.849 205.902C104.675 205.268 107.8 202.984 107.672 202.842C107.129 202.235 101.623 203.099 101.503 201.478Z" fill="#254e39" fill-rule="nonzero" opacity="1" stroke="#254e39" stroke-linecap="round" stroke-linejoin="round" stroke-width="1"/>
<path d="M127.357 177.782C127.538 177.795 125.102 175.443 124.464 174.455C123.299 172.647 120.681 167.049 124.975 166.841C128.754 166.659 139.281 176.886 137.811 180.871C135.602 186.863 127.118 177.764 127.357 177.782Z" fill="#254e39" fill-rule="nonzero" opacity="1" stroke="#254e39" stroke-linecap="round" stroke-linejoin="round" stroke-width="1"/>
<path d="M124.155 148.229C127.168 150.052 127.963 156.575 128.893 159.974C128.97 160.258 128.837 160.768 129.125 160.825C129.765 160.953 135.567 150.853 135.544 150.834C134.68 150.082 123.432 147.792 124.155 148.229Z" fill="#254e39" fill-rule="nonzero" opacity="1" stroke="#254e39" stroke-linecap="round" stroke-linejoin="round" stroke-width="1"/>
<path d="M136.728 207.662C138.685 208.918 132.008 209.227 130.922 207.673C130.126 206.534 133.126 205.579 133.103 205.479C132.761 204.018 129.704 205.191 128.871 203.943C127.907 202.498 129.316 198.513 130.679 200.153C130.757 200.247 130.516 200.359 130.397 200.387C127.818 200.99 125.242 196.472 127.382 194.694C130.247 192.313 133.682 196.432 134.276 198.975C134.442 199.685 135.565 197.733 136.24 198.011C137.067 198.352 137.365 201.727 137.614 201.73C138.624 201.746 138.978 200.378 139.717 202.081C141.653 206.541 135.747 207.033 136.728 207.662Z" fill="#103422" fill-rule="nonzero" opacity="1" stroke="#103422" stroke-linecap="round" stroke-linejoin="round" stroke-width="1"/>
<path d="M103.585 180.09C102.024 178.532 106.23 192.438 108.001 193.448C108.22 193.573 114.837 186.037 114.615 185.843C112.121 183.674 106.2 182.699 103.585 180.09Z" fill="#254e39" fill-rule="nonzero" opacity="1" stroke="#254e39" stroke-linecap="round" stroke-linejoin="round" stroke-width="1"/>
<path d="M102.307 224.214C101.665 222.413 109.058 243.907 109.47 243.989C111.108 244.316 111.062 240.973 112.306 239.858C112.824 239.394 118.194 234.06 118.017 233.415C117.925 233.078 103.595 227.824 102.307 224.214Z" fill="#254e39" fill-rule="nonzero" opacity="1" stroke="#254e39" stroke-linecap="round" stroke-linejoin="round" stroke-width="1"/>
<path d="M132.69 138.898C132.432 138.695 134.934 145.999 135.674 146.62C136.265 147.115 137.994 143.888 138.541 143.76C138.561 143.756 140.503 155.593 140.787 155.527C141.669 155.321 141.781 151.59 142.999 151.305C143.319 151.231 143.189 151.937 143.223 152.263C143.387 153.814 145.518 165.029 146.811 164.726C147.728 164.512 157.963 149.925 157.076 148.856C155.637 147.125 147.069 151.291 145.388 148.558C144.745 147.513 149.414 144.91 148.606 143.596C147.662 142.063 142.343 144.795 141.49 143.408C141.025 142.652 144.733 140.839 143.692 139.862C141.849 138.135 134.982 140.707 132.69 138.898Z" fill="#254e39" fill-rule="nonzero" opacity="1" stroke="#254e39" stroke-linecap="round" stroke-linejoin="round" stroke-width="1"/>
<path d="M30.2886 242.482C30.3135 242.588 30.3384 242.695 30.3633 242.801" fill="#15402a" fill-rule="nonzero" opacity="1" stroke="#15402a" stroke-linecap="round" stroke-linejoin="round" stroke-width="1"/>
<path d="M30.7095 243.562C29.6326 242.553 29.3893 240.307 28.9512 238.922C28.6003 237.813 28.2259 236.749 27.848 235.644C26.1165 230.578 34.833 237.861 37.423 236.268" fill="#15402a" fill-rule="nonzero" opacity="1" stroke="#15402a" stroke-linecap="round" stroke-linejoin="round" stroke-width="1"/>
<path d="M36.5501 236.135C36.0229 235.109 35.8684 233.939 35.6066 232.82C33.9586 225.771 39.201 232.603 39.9108 229.624" fill="#15402a" fill-rule="nonzero" opacity="1" stroke="#15402a" stroke-linecap="round" stroke-linejoin="round" stroke-width="1"/>
<path d="M117.293 139.299C117.179 138.005 116.562 134.404 117.393 135.403C118.218 136.397 118.196 140.214 118.135 141.46C118.083 142.532 118.29 145.725 118.046 144.68C117.486 142.285 116.781 136.607 118.164 134.381C118.906 133.187 121.601 134.145 122.539 134.368C123.086 134.499 124.71 134.703 124.162 134.831C122.715 135.169 118.474 132.378 117.339 133.732C115.956 135.382 116.453 141.349 116.593 143.504C116.628 144.06 116.647 145.175 116.647 145.175C116.647 145.175 116.658 143.927 116.715 143.307C116.936 140.911 116.885 135.158 119.095 133.321C119.794 132.741 125.35 135.013 126.02 135.575C126.245 135.763 122.723 140.384 122.398 140.968C121.742 142.145 118.694 147.548 116.935 147.128" fill="#103422" fill-rule="nonzero" opacity="1" stroke="#103422" stroke-linecap="round" stroke-linejoin="round" stroke-width="1"/>
<path d="M57.0085 211.652C58.7099 211.542 55.5107 208.02 56.4102 206.572C57.7366 204.436 62.8329 203.058 64.7016 205.307C70.2121 211.939 55.1457 211.772 57.0085 211.652Z" fill="#103422" fill-rule="nonzero" opacity="1" stroke="#103422" stroke-linecap="round" stroke-linejoin="round" stroke-width="1"/>
<path d="M79.2139 189.959C77.4891 189.499 78.6145 188.331 78.8665 186.673C79.8115 180.455 86.7172 184.083 85.2048 185.696C84.3504 186.608 83.4666 187.502 82.4224 188.199C81.4715 188.833 80.334 190.258 79.2139 189.959Z" fill="#103422" fill-rule="nonzero" opacity="1" stroke="#103422" stroke-linecap="round" stroke-linejoin="round" stroke-width="1"/>
<path d="M101.721 164.155C102.677 163.135 107.356 146.977 112.334 154.097C114.675 157.445 100.212 165.766 101.721 164.155Z" fill="#103422" fill-rule="nonzero" opacity="1" stroke="#103422" stroke-linecap="round" stroke-linejoin="round" stroke-width="1"/>
<path d="M144.22 131.32C143.79 129.479 142.77 126.677 143.046 124.859C143.154 124.148 152.475 123.464 153.308 124.817C154.093 126.095 151.124 127.72 151.415 128.964C151.738 130.348 153.458 126.341 154.873 126.472C156.135 126.589 157.899 127.951 159.584 127.896C159.802 127.889 160.173 127.534 160.222 127.747C160.285 128.014 156.443 130.604 157.627 131.048C158.703 131.451 162.993 129.085 163.374 129.704C164.086 130.862 154.282 142.843 153.008 144.419C152.712 144.785 152.517 145.644 152.077 145.479C150.334 144.826 153.209 135.446 151.774 134.1C150.889 133.271 147.638 138.692 146.735 138.477C145.001 138.064 148.351 131.951 147.562 131.212C146.765 130.464 144.754 132.743 144.716 132.719C143.579 132.014 144.142 125.95 144.5 126.035" fill="#103422" fill-rule="nonzero" opacity="1" stroke="#103422" stroke-linecap="round" stroke-linejoin="round" stroke-width="1"/>
<path d="M61.1554 249.914C58.7076 250.486 53.6092 250.953 52.3144 248.108C51.6486 246.645 56.3594 243.133 55.5115 244.498C54.4762 246.165 49.7883 242.615 49.4322 241.542C48.102 237.533 53.2927 237.982 53.1455 237.98C49.7359 237.928 44.4172 228.615 47.941 227.242C50.9283 226.078 54.4898 229.043 56.5166 230.793C57.4617 231.609 58.0786 234.871 58.7373 233.81C59.2198 233.033 60.4709 227.521 62.8073 230.333C64.467 232.33 63.4441 238.098 63.4441 238.098C63.4441 238.098 65.1 236.172 66.0938 236.468C67.5158 236.891 67.7197 239.504 67.5805 240.667C67.2378 243.53 60.8481 252.986 57.3548 248.782" fill="#103422" fill-rule="nonzero" opacity="1" stroke="#103422" stroke-linecap="round" stroke-linejoin="round" stroke-width="1"/>
<path d="M80.8307 244.149C80.8555 243.766 76.8276 247.992 74.2369 246.823C72.0904 245.855 75.015 242.908 75.6773 241.975C76.0157 241.498 74.572 242.611 73.9432 242.683C72.5295 242.844 71.2796 241.917 70.6076 240.876C69.7171 239.495 71.122 234.729 70.1506 236.097C68.9062 237.85 59.1306 224.603 63.4734 222.732C67.8777 220.834 72.9363 229.369 75.4856 230.75C76.3566 231.222 77.7154 228.801 79.2171 229.614C80.7113 230.424 81.2908 235.235 82.5873 236.795C84.3046 238.861 84.3659 241.665 82.2221 243.599C81.708 244.062 80.7539 245.331 80.8307 244.149Z" fill="#103422" fill-rule="nonzero" opacity="1" stroke="#103422" stroke-linecap="round" stroke-linejoin="round" stroke-width="1"/>
<path d="M113.063 172.7C111.617 174.456 105.463 163.281 106.989 162.924C107.612 162.778 114.33 169.87 114.535 171.431C114.763 173.175 113.584 172.068 113.063 172.7Z" fill="#103422" fill-rule="nonzero" opacity="1" stroke="#103422" stroke-linecap="round" stroke-linejoin="round" stroke-width="1"/>
<path d="M90.3971 205.024C87.3476 204.297 80.1461 199.517 81.4357 195.501C82.471 192.278 93.3127 201.707 92.0786 204.294C91.125 206.294 84.0218 201.666 85.3918 199.459" fill="#103422" fill-rule="nonzero" opacity="1" stroke="#103422" stroke-linecap="round" stroke-linejoin="round" stroke-width="1"/>
<path d="M87.8142 189.296C90.2014 192.535 93.894 202.419 97.1667 204.452C97.3177 204.546 100.599 198.779 99.9262 198.25C96.8676 195.845 93.2141 193.949 90.0878 191.458C89.7021 191.151 87.2747 188.563 87.8142 189.296Z" fill="#103422" fill-rule="nonzero" opacity="1" stroke="#103422" stroke-linecap="round" stroke-linejoin="round" stroke-width="1"/>
<path d="M116.965 191.909C112.585 192.511 107.956 180.071 112.41 180.346C115.644 180.546 121.872 187.147 120.685 190.535C120.309 191.608 118.86 191.649 116.965 191.909Z" fill="#103422" fill-rule="nonzero" opacity="1" stroke="#103422" stroke-linecap="round" stroke-linejoin="round" stroke-width="1"/>
<path d="M113.692 239.483C113.128 240.841 117.761 244.895 118.074 244.184C119.336 241.31 114.232 238.183 113.692 239.483Z" fill="#4a2606" fill-rule="nonzero" opacity="1" stroke="#4a2606" stroke-linecap="round" stroke-linejoin="round" stroke-width="1"/>
<path d="M103.384 242.567C102.795 244.297 106.487 249.877 108.288 246.977C109.009 245.815 104.083 240.511 103.384 242.567Z" fill="#4a2606" fill-rule="nonzero" opacity="1" stroke="#4a2606" stroke-linecap="round" stroke-linejoin="round" stroke-width="1"/>
<path d="M95.2889 260.876C94.4716 262.705 95.614 262.833 96.9695 264.103C103.384 270.116 96.9942 257.059 95.2889 260.876Z" fill="#4a2606" fill-rule="nonzero" opacity="1" stroke="#4a2606" stroke-linecap="round" stroke-linejoin="round" stroke-width="1"/>
<path d="M77.7339 273.652C75.3203 278.776 87.7138 279.862 80.704 274.473C79.324 273.412 78.5409 271.938 77.7339 273.652Z" fill="#4a2606" fill-rule="nonzero" opacity="1" stroke="#4a2606" stroke-linecap="round" stroke-linejoin="round" stroke-width="1"/>
<path d="M84.0718 259.71C82.7357 259.813 85.1459 263.767 86.2873 263.065C87.0927 262.569 84.4466 259.681 84.0718 259.71Z" fill="#4a2606" fill-rule="nonzero" opacity="1" stroke="#4a2606" stroke-linecap="round" stroke-linejoin="round" stroke-width="1"/>
<path d="M73.8354 291.906C75.0877 293.413 77.4362 296.393 78.9941 295.246C79.3625 294.975 81.4827 294.344 80.9306 293.446C79.8469 291.684 77.3256 290.752 76.1492 288.839" fill="#4a2606" fill-rule="nonzero" opacity="1" stroke="#4a2606" stroke-linecap="round" stroke-linejoin="round" stroke-width="1"/>
<path d="M66.5344 270.04L66.2151 270.115L66.4867 270.557L67.1149 271.083L67.8178 271.929L68.4461 272.456L68.84 272.7L68.8877 272.184L68.7757 271.705" fill="#4a2606" fill-rule="nonzero" opacity="1" stroke="#4a2606" stroke-linecap="round" stroke-linejoin="round" stroke-width="1"/>
<path d="M54.3616 274.149C53.5461 275.181 54.276 278.463 56.2713 277.996C58.3699 277.505 56.5216 271.416 54.3616 274.149Z" fill="#4a2606" fill-rule="nonzero" opacity="1" stroke="#4a2606" stroke-linecap="round" stroke-linejoin="round" stroke-width="1"/>
<path d="M53.0975 261.901C54.8382 268.208 58.2587 264.082 53.9009 261.376C53.0505 260.848 52.792 260.794 53.0975 261.901Z" fill="#4a2606" fill-rule="nonzero" opacity="1" stroke="#4a2606" stroke-linecap="round" stroke-linejoin="round" stroke-width="1"/>
<path d="M123.916 215.877C128.104 222.686 132.536 220.281 124.324 212.583" fill="#4a2606" fill-rule="nonzero" opacity="1" stroke="#4a2606" stroke-linecap="round" stroke-linejoin="round" stroke-width="1"/>
<path d="M138.524 205.98C137.395 207.147 140.383 210.568 141.226 209.978C142.86 208.836 140.054 204.397 138.524 205.98Z" fill="#4a2606" fill-rule="nonzero" opacity="1" stroke="#4a2606" stroke-linecap="round" stroke-linejoin="round" stroke-width="1"/>
<path d="M136.242 186.14C135.279 188.38 140.794 193.24 141.346 191.766C142.413 188.917 137.202 183.908 136.242 186.14Z" fill="#4a2606" fill-rule="nonzero" opacity="1" stroke="#4a2606" stroke-linecap="round" stroke-linejoin="round" stroke-width="1"/>
<path d="M148.306 176.163L148.296 176.839L148.53 177.121L149.158 177.648L149.861 178.493L150.761 179.462L151.549 179.951L151.794 179.557L151.176 178.355L150.632 177.471L150.126 176.748L149.818 176.146" fill="#4a2606" fill-rule="nonzero" opacity="1" stroke="#4a2606" stroke-linecap="round" stroke-linejoin="round" stroke-width="1"/>
<path d="M152.396 158.369C152.228 159.076 159.778 167.616 158.167 160.724C157.899 159.58 157.335 158.757 156.5 157.915C155.503 156.91 154.042 156.219 153.161 155.159" fill="#4a2606" fill-rule="nonzero" opacity="1" stroke="#4a2606" stroke-linecap="round" stroke-linejoin="round" stroke-width="1"/>
<path d="M161.221 135.259C158.984 136.519 163.835 139.045 164.15 138.784C165.405 137.74 161.963 134.841 161.221 135.259Z" fill="#4a2606" fill-rule="nonzero" opacity="1" stroke="#4a2606" stroke-linecap="round" stroke-linejoin="round" stroke-width="1"/>
<path d="M143.856 162.891L145.347 164.227" fill="#4a2606" fill-rule="nonzero" opacity="1" stroke="#4a2606" stroke-linecap="round" stroke-linejoin="round" stroke-width="1"/>
<path d="M132.637 156.675C130.659 158.303 133.641 158.998 133.939 158.643C134.825 157.587 133.681 155.815 132.637 156.675Z" fill="#4a2606" fill-rule="nonzero" opacity="1" stroke="#4a2606" stroke-linecap="round" stroke-linejoin="round" stroke-width="1"/>
<path d="M114.168 172.021L113.923 172.415L113.998 172.735L114.785 173.224L115.451 173.91L115.92 174.474L116.548 175.001L116.399 174.362L115.855 173.479L115.349 172.755L115.275 172.436" fill="#4a2606" fill-rule="nonzero" opacity="1" stroke="#4a2606" stroke-linecap="round" stroke-linejoin="round" stroke-width="1"/>
<path d="M121.829 191.109L122.074 190.715" fill="#4a2606" fill-rule="nonzero" opacity="1" stroke="#4a2606" stroke-linecap="round" stroke-linejoin="round" stroke-width="1"/>
<path d="M91.2352 204.808L91.5633 205.355L92.4252 206.062L93.5702 207.169L94.8181 208.082L95.352 208.243L94.8889 207.253L94.3229 206.455L93.4159 205.599L92.4639 204.596L91.7049 203.695L91.126 203.386" fill="#4a2606" fill-rule="nonzero" opacity="1" stroke="#4a2606" stroke-linecap="round" stroke-linejoin="round" stroke-width="1"/>
<path d="M85.6176 223.006L85.7976 223.598L86.6146 224.158L87.4765 224.865L88.4414 225.38L89.0204 225.689L88.7953 224.949L88.1263 224.344L87.6053 223.695L86.9363 223.09L86.3124 222.633L85.8814 222.279" fill="#4a2606" fill-rule="nonzero" opacity="1" stroke="#4a2606" stroke-linecap="round" stroke-linejoin="round" stroke-width="1"/>
<path d="M82.2717 231.137L82.4518 231.729L83.2687 232.289L84.3816 232.758L85.0634 232.874L85.3594 232.784L85.1343 232.044L84.3753 231.144L83.7513 230.687L83.4233 230.14" fill="#4a2606" fill-rule="nonzero" opacity="1" stroke="#4a2606" stroke-linecap="round" stroke-linejoin="round" stroke-width="1"/>
<path d="M63.4795 248.009L63.7625 248.408L64.7724 249.071L65.7823 249.733L66.5542 250.145L66.9402 250.351L66.8502 250.055L66.2841 249.257L65.5701 248.505L64.8561 247.752L64.3802 247.25" fill="#4a2606" fill-rule="nonzero" opacity="1" stroke="#4a2606" stroke-linecap="round" stroke-linejoin="round" stroke-width="1"/>
<path d="M65.1684 209.99L66.0303 210.698" fill="#4a2606" fill-rule="nonzero" opacity="1" stroke="#4a2606" stroke-linecap="round" stroke-linejoin="round" stroke-width="1"/>
<path d="M107.837 222.712C107.467 224.228 108.444 226.915 111.291 227.158C113.161 227.317 108.282 220.889 107.837 222.712Z" fill="#4a2606" fill-rule="nonzero" opacity="1" stroke="#4a2606" stroke-linecap="round" stroke-linejoin="round" stroke-width="1"/>
<path d="M110.057 214.6C109.002 216.167 115.361 220.124 112.508 216.28C111.798 215.323 110.829 213.455 110.057 214.6Z" fill="#4a2606" fill-rule="nonzero" opacity="1" stroke="#4a2606" stroke-linecap="round" stroke-linejoin="round" stroke-width="1"/>
</g>
<g opacity="1">
<path d="M200.991 130.448C199.429 131.016 198.06 132.852 196.841 133.803C183.254 144.407 186.148 159.842 191.314 172.968C193.166 177.672 196.138 183.233 196.752 188.047C196.816 188.544 197.203 189.129 198.036 188.992C211.807 186.73 223.441 168.645 222.774 159.68C222.394 154.562 221.532 135.054 218.683 130.448C217.727 128.902 215.938 114.067 214.093 114.265" fill="#4c82bf" fill-opacity="0.788288" fill-rule="nonzero" opacity="0.338801" stroke="#4c82bf" stroke-linecap="round" stroke-linejoin="round" stroke-opacity="0.788288" stroke-width="2.31762"/>
<path d="M198.558 193.375C198.266 193 193.826 193.44 194.086 190.149C194.283 187.665 198.431 173.764 202.469 180.998C205.297 186.065 202.927 189.049 199.621 192.8C199.31 193.153 198.989 193.928 198.558 193.375Z" fill="#5e5e5e" fill-rule="nonzero" opacity="1" stroke="#5e5e5e" stroke-linecap="round" stroke-linejoin="round" stroke-width="1"/>
<path d="M184.24 152.432C184.717 153.612 179.615 149.665 180.111 148.493C180.958 146.493 184.638 144.168 186.543 146.608C187.931 148.384 183.902 151.599 184.24 152.432Z" fill="#5e5e5e" fill-rule="nonzero" opacity="1" stroke="#5e5e5e" stroke-linecap="round" stroke-linejoin="round" stroke-width="1"/>
<path d="M197.035 134.997C197.309 134.035 195.578 134.096 194.959 133.247C193.811 131.671 195.148 127.395 197.487 127.762C206.557 129.186 195.868 139.089 197.035 134.997Z" fill="#5e5e5e" fill-rule="nonzero" opacity="1" stroke="#5e5e5e" stroke-linecap="round" stroke-linejoin="round" stroke-width="1"/>
<path d="M184.906 145.687C184.974 144.087 183.516 134.241 188.284 136.26C189.164 136.633 189.81 138.497 189.833 139.375C189.898 141.897 184.742 149.517 184.906 145.687Z" fill="#5e5e5e" fill-rule="nonzero" opacity="1" stroke="#5e5e5e" stroke-linecap="round" stroke-linejoin="round" stroke-width="1"/>
<path d="M191.878 184.12C189.031 184.425 190.25 175.978 193.541 175.964C199.047 175.941 195.584 183.725 191.878 184.12Z" fill="#8b8b8b" fill-rule="nonzero" opacity="1" stroke="#8b8b8b" stroke-linecap="round" stroke-linejoin="round" stroke-width="1"/>
<path d="M194.985 129.61C195.002 129.168 184.74 136.288 192.387 138.57C197.218 140.012 194.862 132.745 194.985 129.61Z" fill="#8b8b8b" fill-rule="nonzero" opacity="1" stroke="#8b8b8b" stroke-linecap="round" stroke-linejoin="round" stroke-width="1"/>
<path d="M201.086 131.501C199.153 131.569 197.113 123.808 201.434 123.696C205.222 123.597 205.006 131.363 201.086 131.501Z" fill="#8b8b8b" fill-rule="nonzero" opacity="1" stroke="#8b8b8b" stroke-linecap="round" stroke-linejoin="round" stroke-width="1"/>
<path d="M204.537 124.589C204.624 121.492 203.932 114.309 209.175 114.747C210.129 114.827 211.708 115.948 211.713 117.113C211.725 120.015 204.416 128.869 204.537 124.589Z" fill="#303030" fill-rule="nonzero" opacity="1" stroke="#303030" stroke-linecap="round" stroke-linejoin="round" stroke-width="1"/>
<path d="M191.832 175.372C190.656 175.387 189.223 174.766 188.726 173.701C188.024 172.192 187.74 168.291 190.257 168.139C194.228 167.898 194.463 175.338 191.832 175.372Z" fill="#303030" fill-rule="nonzero" opacity="1" stroke="#303030" stroke-linecap="round" stroke-linejoin="round" stroke-width="1"/>
<path d="M188.756 166.555C188.726 165.912 182.036 160.88 186.798 159.11C189.965 157.932 192.487 165.304 189.729 167.195C188.873 167.781 188.809 167.673 188.756 166.555Z" fill="#303030" fill-rule="nonzero" opacity="1" stroke="#303030" stroke-linecap="round" stroke-linejoin="round" stroke-width="1"/>
<path d="M184.24 152.432C183.019 153.269 184.05 158.961 186.275 158.519C188.399 158.097 188.539 149.541 186.64 149.005C184.647 148.443 183.286 153.467 184.106 154.662" fill="#5e5e5e" fill-rule="nonzero" opacity="1" stroke="#5e5e5e" stroke-linecap="round" stroke-linejoin="round" stroke-width="1"/>
</g>
<path d="M7.79079 203.093C3.05387 209.541 16.3528 222.963 20.0161 229.95C28.7806 246.667 37.5851 264.082 44.4666 281.582C54.7769 307.802 67.8791 332.461 80.2693 357.781C83.5632 364.513 86.39 371.537 89.8748 378.184C89.9273 378.284 91.4209 381.088 92.0579 380.683C95.7411 378.341 99.145 362.364 101.227 358.614C110.886 341.215 121.11 324.078 131.353 306.982C147.962 279.263 161.513 249.658 178.945 222.455C190.698 204.113 219.57 174.077 224.79 154.167C226.975 145.83 211.583 113.987 207.325 105.866C194.892 82.1521 180.986 58.4756 170.649 33.831C169.633 31.4091 162.483 11.3461 159.297 11.3461C158.989 11.3461 158.059 15.328 157.987 15.5099C156.637 18.9432 154.418 22.0725 152.311 25.0869C142.979 38.4364 132.657 51.2003 123.494 64.6438C99.7527 99.4772 69.5164 133.316 41.4103 164.993C34.3858 172.91 13.5015 195.319 7.79079 203.093Z" fill="#c5eaff" fill-opacity="0.346272" fill-rule="nonzero" opacity="1" stroke="#bebebe" stroke-linecap="round" stroke-linejoin="round" stroke-width="9.88052"/>
<path d="M90.9559 114.265C101.566 137.935 114.851 160.294 128.131 182.63L90.9559 114.265ZM128.232 182.817L165.24 250.844C154.712 227.356 141.476 205.092 128.232 182.817Z" fill="#c5eaff" fill-opacity="0.346272" fill-rule="nonzero" opacity="1" stroke="#bebebe" stroke-linecap="round" stroke-linejoin="round" stroke-width="9.88052"/>
<path d="M57.1784 197.726C56.9519 197.114 58.5768 196.409 58.8751 196.091" fill="#e1ca34" fill-opacity="0" fill-rule="nonzero" filter="url(#Filter_10)" opacity="1" stroke="#e1ca34" stroke-linecap="round" stroke-linejoin="round" stroke-width="1"/>
</g>
</svg>
