<?xml version="1.0" encoding="UTF-8" standalone="no"?>
<!DOCTYPE svg PUBLIC "-//W3C//DTD SVG 1.1//EN" "http://www.w3.org/Graphics/SVG/1.1/DTD/svg11.dtd">
<!-- Created with Vectornator (http://vectornator.io/) -->
<svg height="100%" stroke-miterlimit="10" style="fill-rule:nonzero;clip-rule:evenodd;stroke-linecap:round;stroke-linejoin:round;" version="1.1" viewBox="42.4222 57.5426 166.457 255.915" width="100%" xml:space="preserve" xmlns="http://www.w3.org/2000/svg" xmlns:vectornator="http://vectornator.io" xmlns:xlink="http://www.w3.org/1999/xlink">
<defs/>
<g id="Layer">
<g opacity="1">
<path d="M42.9222 204.896C44.6213 210.084 59.8283 229.784 64.2215 228.71" fill="#e1ca34" fill-opacity="0" fill-rule="nonzero" opacity="1" stroke="#dddddd" stroke-linecap="round" stroke-linejoin="round" stroke-width="1"/>
<path d="M65.0633 183.791C70.8959 191.549 76.3774 200.018 82.6663 207.433" fill="#e1ca34" fill-opacity="0" fill-rule="nonzero" opacity="1" stroke="#dddddd" stroke-linecap="round" stroke-linejoin="round" stroke-width="1"/>
<path d="M81.8717 155.82C86.5337 161.317 91.039 167.472 96.9322 171.701" fill="#e1ca34" fill-opacity="0" fill-rule="nonzero" opacity="1" stroke="#dddddd" stroke-linecap="round" stroke-linejoin="round" stroke-width="1"/>
<path d="M113.771 118.356C115.707 122.032 132.672 140.091 136.04 140.858" fill="#e1ca34" fill-opacity="0" fill-rule="nonzero" opacity="1" stroke="#dddddd" stroke-linecap="round" stroke-linejoin="round" stroke-width="1"/>
<path d="M124.607 89.6964C123.954 92.5647 133.976 100.394 136.395 101.862" fill="#e1ca34" fill-opacity="0" fill-rule="nonzero" opacity="1" stroke="#dddddd" stroke-linecap="round" stroke-linejoin="round" stroke-width="1"/>
<path d="M135.701 118.369C141.57 126.585 148.627 137.272 157.303 142.539" fill="#e1ca34" fill-opacity="0" fill-rule="nonzero" opacity="1" stroke="#dddddd" stroke-linecap="round" stroke-linejoin="round" stroke-width="1"/>
<path d="M154.975 93.4506C156.161 98.2993 162.96 104.308 166.344 108.299" fill="#e1ca34" fill-opacity="0" fill-rule="nonzero" opacity="1" stroke="#dddddd" stroke-linecap="round" stroke-linejoin="round" stroke-width="1"/>
<path d="M155.412 58.3043C154.2 56.8749 157.046 61.6956 158.121 63.2311C159.224 64.807 162.048 70.4465 164.31 70.9616" fill="#e1ca34" fill-opacity="0" fill-rule="nonzero" opacity="1" stroke="#dddddd" stroke-linecap="round" stroke-linejoin="round" stroke-width="1"/>
<path d="M132.531 75.5061C135.486 78.3389 138.294 81.2901 140.943 84.413" fill="#e1ca34" fill-opacity="0" fill-rule="nonzero" opacity="1" stroke="#dddddd" stroke-linecap="round" stroke-linejoin="round" stroke-width="1"/>
<path d="M175.562 79.1743C174.834 79.3522 177.88 82.3617 182.454 88.0226C187.14 93.8225 191.196 99.805 195.428 105.918C196.987 108.17 201.465 114.786 200.814 112.125" fill="#e1ca34" fill-opacity="0" fill-rule="nonzero" opacity="1" stroke="#dddddd" stroke-linecap="round" stroke-linejoin="round" stroke-width="1"/>
<path d="M164.059 128.849C165.963 136.638 177.206 140.418 179.201 148.579" fill="#e1ca34" fill-opacity="0" fill-rule="nonzero" opacity="1" stroke="#dddddd" stroke-linecap="round" stroke-linejoin="round" stroke-width="1"/>
<path d="M89.7833 182.907C90.9531 184.766 100.788 199.779 101.598 199.58" fill="#e1ca34" fill-opacity="0" fill-rule="nonzero" opacity="1" stroke="#dddddd" stroke-linecap="round" stroke-linejoin="round" stroke-width="1"/>
<path d="M85.1734 241.43C87.6482 245.642 91.2323 254.263 95.6271 256.932" fill="#e1ca34" fill-opacity="0" fill-rule="nonzero" opacity="1" stroke="#dddddd" stroke-linecap="round" stroke-linejoin="round" stroke-width="1"/>
<path d="M49.3239 239.876C52.0856 244.926 55.7198 252.436 60.0255 256.392" fill="#e1ca34" fill-opacity="0" fill-rule="nonzero" opacity="1" stroke="#dddddd" stroke-linecap="round" stroke-linejoin="round" stroke-width="1"/>
<path d="M71.2821 292.764C74.8942 298.506 82.3798 309.52 88.0421 312.958" fill="#e1ca34" fill-opacity="0" fill-rule="nonzero" opacity="1" stroke="#dddddd" stroke-linecap="round" stroke-linejoin="round" stroke-width="1"/>
<path d="M90.1194 283.644C90.3719 284.677 107.73 302.915 109.616 303.599" fill="#e1ca34" fill-opacity="0" fill-rule="nonzero" opacity="1" stroke="#dddddd" stroke-linecap="round" stroke-linejoin="round" stroke-width="1"/>
<path d="M100.918 223.178C101.854 227.004 110.169 232.064 112.909 235.294" fill="#e1ca34" fill-opacity="0" fill-rule="nonzero" opacity="1" stroke="#dddddd" stroke-linecap="round" stroke-linejoin="round" stroke-width="1"/>
<path d="M126.188 213.991C127.468 219.227 135.313 224.356 138.521 228.388C141.669 232.343 143.554 237.353 146.811 241.194" fill="#e1ca34" fill-opacity="0" fill-rule="nonzero" opacity="1" stroke="#dddddd" stroke-linecap="round" stroke-linejoin="round" stroke-width="1"/>
<path d="M134.161 161.309C139.502 168.304 144.584 175.501 149.699 182.662" fill="#e1ca34" fill-opacity="0" fill-rule="nonzero" opacity="1" stroke="#dddddd" stroke-linecap="round" stroke-linejoin="round" stroke-width="1"/>
<path d="M174.473 181.12C173.956 183.392 181.146 188.687 182.885 190.027" fill="#e1ca34" fill-opacity="0" fill-rule="nonzero" opacity="1" stroke="#dddddd" stroke-linecap="round" stroke-linejoin="round" stroke-width="1"/>
<path d="M192.823 129.556C195.947 134.789 203.191 144.315 208.379 147.465" fill="#e1ca34" fill-opacity="0" fill-rule="nonzero" opacity="1" stroke="#dddddd" stroke-linecap="round" stroke-linejoin="round" stroke-width="1"/>
<path d="M150.227 198.011C154.565 203.125 159.357 208.051 163.976 212.922" fill="#e1ca34" fill-opacity="0" fill-rule="nonzero" opacity="1" stroke="#dddddd" stroke-linecap="round" stroke-linejoin="round" stroke-width="1"/>
<path d="M114.145 260.573C118.591 265.376 122.582 270.762 127.389 275.178" fill="#e1ca34" fill-opacity="0" fill-rule="nonzero" opacity="1" stroke="#dddddd" stroke-linecap="round" stroke-linejoin="round" stroke-width="1"/>
</g>
</g>
</svg>
