<?xml version="1.0" encoding="UTF-8" standalone="no"?>
<!DOCTYPE svg PUBLIC "-//W3C//DTD SVG 1.1//EN" "http://www.w3.org/Graphics/SVG/1.1/DTD/svg11.dtd">
<!-- Created with Vectornator (http://vectornator.io/) -->
<svg height="100%" stroke-miterlimit="10" style="fill-rule:nonzero;clip-rule:evenodd;stroke-linecap:round;stroke-linejoin:round;" version="1.1" viewBox="142.507 108.626 477.939 479.172" width="100%" xml:space="preserve" xmlns="http://www.w3.org/2000/svg" xmlns:xlink="http://www.w3.org/1999/xlink">
<defs>
<filter color-interpolation-filters="sRGB" filterUnits="userSpaceOnUse" height="136.232" id="Filter" width="314.797" x="142.507" y="435.448">
<feGaussianBlur in="SourceGraphic" result="Blur" stdDeviation="24.7401"/>
</filter>
<filter color-interpolation-filters="sRGB" filterUnits="userSpaceOnUse" height="230.909" id="Filter_2" width="219.423" x="336.388" y="340.074">
<feGaussianBlur in="SourceGraphic" result="Blur" stdDeviation="24.7401"/>
</filter>
<filter color-interpolation-filters="sRGB" filterUnits="userSpaceOnUse" height="190.326" id="Filter_3" width="253.985" x="293.819" y="287.025">
<feGaussianBlur in="SourceGraphic" result="Blur" stdDeviation="24.7401"/>
</filter>
<filter color-interpolation-filters="sRGB" filterUnits="userSpaceOnUse" height="173.824" id="Filter_4" width="149.652" x="438.007" y="360.262">
<feGaussianBlur in="SourceGraphic" result="Blur" stdDeviation="24.7401"/>
</filter>
<filter color-interpolation-filters="sRGB" filterUnits="userSpaceOnUse" height="152.905" id="Filter_5" width="134.686" x="390.688" y="430.203">
<feGaussianBlur in="SourceGraphic" result="Blur" stdDeviation="24.7401"/>
</filter>
<filter color-interpolation-filters="sRGB" filterUnits="userSpaceOnUse" height="144.237" id="Filter_6" width="293.945" x="157.474" y="414.215">
<feGaussianBlur in="SourceGraphic" result="Blur" stdDeviation="24.7401"/>
</filter>
<filter color-interpolation-filters="sRGB" filterUnits="userSpaceOnUse" height="54.7044" id="Filter_7" width="245.746" x="188.347" y="470.091">
<feGaussianBlur in="SourceGraphic" result="Blur" stdDeviation="7.51818"/>
</filter>
<filter color-interpolation-filters="sRGB" filterUnits="userSpaceOnUse" height="100.762" id="Filter_8" width="78.3163" x="438.268" y="383.308">
<feGaussianBlur in="SourceGraphic" result="Blur" stdDeviation="7.51818"/>
</filter>
<filter color-interpolation-filters="sRGB" filterUnits="userSpaceOnUse" height="58.4757" id="Filter_9" width="37.8646" x="401.098" y="528.278">
<feGaussianBlur in="SourceGraphic" result="Blur" stdDeviation="7.51818"/>
</filter>
<filter color-interpolation-filters="sRGB" filterUnits="userSpaceOnUse" height="60.2161" id="Filter_10" width="39.5938" x="394.496" y="527.582">
<feGaussianBlur in="SourceGraphic" result="Blur" stdDeviation="7.51818"/>
</filter>
<filter color-interpolation-filters="sRGB" filterUnits="userSpaceOnUse" height="53.6026" id="Filter_11" width="39.2573" x="393.44" y="527.93">
<feGaussianBlur in="SourceGraphic" result="Blur" stdDeviation="7.51818"/>
</filter>
<filter color-interpolation-filters="sRGB" filterUnits="userSpaceOnUse" height="52.5583" id="Filter_12" width="40.7236" x="403.112" y="528.278">
<feGaussianBlur in="SourceGraphic" result="Blur" stdDeviation="7.51818"/>
</filter>
<filter color-interpolation-filters="sRGB" filterUnits="userSpaceOnUse" height="49.7737" id="Filter_13" width="41.0355" x="405.237" y="522.709">
<feGaussianBlur in="SourceGraphic" result="Blur" stdDeviation="7.51818"/>
</filter>
<filter color-interpolation-filters="sRGB" filterUnits="userSpaceOnUse" height="75.4696" id="Filter_14" width="91.7928" x="241.826" y="315.44">
<feGaussianBlur in="SourceGraphic" result="Blur" stdDeviation="10.9097"/>
</filter>
<filter color-interpolation-filters="sRGB" filterUnits="userSpaceOnUse" height="84.2317" id="Filter_15" width="99.7987" x="215.372" y="370.724">
<feGaussianBlur in="SourceGraphic" result="Blur" stdDeviation="10.9097"/>
</filter>
<filter color-interpolation-filters="sRGB" filterUnits="userSpaceOnUse" height="97.3736" id="Filter_16" width="145.782" x="157.553" y="482.32">
<feGaussianBlur in="SourceGraphic" result="Blur" stdDeviation="10.9097"/>
</filter>
<filter color-interpolation-filters="sRGB" filterUnits="userSpaceOnUse" height="184.277" id="Filter_17" width="149.226" x="444.061" y="343.428">
<feGaussianBlur in="SourceGraphic" result="Blur" stdDeviation="10.9097"/>
</filter>
<filter color-interpolation-filters="sRGB" filterUnits="userSpaceOnUse" height="112.52" id="Filter_18" width="294.218" x="164.109" y="450.088">
<feGaussianBlur in="SourceGraphic" result="Blur" stdDeviation="20.2762"/>
</filter>
<filter color-interpolation-filters="sRGB" filterUnits="userSpaceOnUse" height="207.863" id="Filter_19" width="251.351" x="237.183" y="296.154">
<feDropShadow dx="-0" dy="0" flood-color="#000000" flood-opacity="0.333" in="SourceGraphic" result="Shadow" stdDeviation="32.3887"/>
</filter>
<filter color-interpolation-filters="sRGB" filterUnits="userSpaceOnUse" height="193.334" id="Filter_20" width="238.203" x="230.103" y="269.701">
<feDropShadow dx="-0" dy="0" flood-color="#000000" flood-opacity="0.333" in="SourceGraphic" result="Shadow" stdDeviation="32.3887"/>
</filter>
<filter color-interpolation-filters="sRGB" filterUnits="userSpaceOnUse" height="197.291" id="Filter_21" width="201.857" x="370.563" y="108.626">
<feDropShadow dx="-0" dy="0" flood-color="#000000" flood-opacity="0.333" in="SourceGraphic" result="Shadow" stdDeviation="32.3887"/>
</filter>
<filter color-interpolation-filters="sRGB" filterUnits="userSpaceOnUse" height="360.94" id="Filter_22" width="322.513" x="297.933" y="116.702">
<feDropShadow dx="-0" dy="0" flood-color="#000000" flood-opacity="0.333" in="SourceGraphic" result="Shadow" stdDeviation="32.3887"/>
</filter>
<filter color-interpolation-filters="sRGB" filterUnits="userSpaceOnUse" height="171.602" id="Filter_23" width="170.748" x="403.358" y="125.966">
<feDropShadow dx="-0" dy="0" flood-color="#000000" flood-opacity="0.333" in="SourceGraphic" result="Shadow" stdDeviation="32.3887"/>
</filter>
<filter color-interpolation-filters="sRGB" filterUnits="userSpaceOnUse" height="177.403" id="Filter_24" width="175.222" x="402.04" y="123.735">
<feDropShadow dx="-0" dy="0" flood-color="#000000" flood-opacity="0.333" in="SourceGraphic" result="Shadow" stdDeviation="32.3887"/>
</filter>
<filter color-interpolation-filters="sRGB" filterUnits="userSpaceOnUse" height="166.892" id="Filter_25" width="167.021" x="421.502" y="125.763">
<feDropShadow dx="-0" dy="0" flood-color="#000000" flood-opacity="0.333" in="SourceGraphic" result="Shadow" stdDeviation="32.3887"/>
</filter>
<filter color-interpolation-filters="sRGB" filterUnits="userSpaceOnUse" height="165.48" id="Filter_26" width="167.406" x="421.373" y="135.264">
<feDropShadow dx="-0" dy="0" flood-color="#000000" flood-opacity="0.333" in="SourceGraphic" result="Shadow" stdDeviation="32.3887"/>
</filter>
<filter color-interpolation-filters="sRGB" filterUnits="userSpaceOnUse" height="168.561" id="Filter_27" width="165.48" x="413.67" y="113.308">
<feDropShadow dx="-0" dy="0" flood-color="#000000" flood-opacity="0.333" in="SourceGraphic" result="Shadow" stdDeviation="32.3887"/>
</filter>
<filter color-interpolation-filters="sRGB" filterUnits="userSpaceOnUse" height="166.892" id="Filter_28" width="166.122" x="416.366" y="115.748">
<feDropShadow dx="-0" dy="0" flood-color="#000000" flood-opacity="0.333" in="SourceGraphic" result="Shadow" stdDeviation="32.3887"/>
</filter>
<filter color-interpolation-filters="sRGB" filterUnits="userSpaceOnUse" height="168.21" id="Filter_29" width="167.534" x="410.845" y="168.228">
<feDropShadow dx="-0" dy="0" flood-color="#000000" flood-opacity="0.333" in="SourceGraphic" result="Shadow" stdDeviation="32.3887"/>
</filter>
<filter color-interpolation-filters="sRGB" filterUnits="userSpaceOnUse" height="168.361" id="Filter_30" width="167.135" x="386.45" y="176.248">
<feDropShadow dx="-0" dy="0" flood-color="#000000" flood-opacity="0.333" in="SourceGraphic" result="Shadow" stdDeviation="32.3887"/>
</filter>
<filter color-interpolation-filters="sRGB" filterUnits="userSpaceOnUse" height="164.993" id="Filter_31" width="167.791" x="385.808" y="183.284">
<feDropShadow dx="-0" dy="0" flood-color="#000000" flood-opacity="0.333" in="SourceGraphic" result="Shadow" stdDeviation="32.3887"/>
</filter>
<filter color-interpolation-filters="sRGB" filterUnits="userSpaceOnUse" height="168.31" id="Filter_32" width="165.74" x="426.507" y="269.052">
<feDropShadow dx="-0" dy="0" flood-color="#000000" flood-opacity="0.333" in="SourceGraphic" result="Shadow" stdDeviation="32.3887"/>
</filter>
<filter color-interpolation-filters="sRGB" filterUnits="userSpaceOnUse" height="165.873" id="Filter_33" width="166.926" x="377.08" y="262.556">
<feDropShadow dx="-0" dy="0" flood-color="#000000" flood-opacity="0.333" in="SourceGraphic" result="Shadow" stdDeviation="32.3887"/>
</filter>
<filter color-interpolation-filters="sRGB" filterUnits="userSpaceOnUse" height="165.602" id="Filter_34" width="166.953" x="377.236" y="266.41">
<feDropShadow dx="-0" dy="0" flood-color="#000000" flood-opacity="0.333" in="SourceGraphic" result="Shadow" stdDeviation="32.3887"/>
</filter>
<filter color-interpolation-filters="sRGB" filterUnits="userSpaceOnUse" height="166.732" id="Filter_35" width="167.772" x="378.583" y="270.136">
<feDropShadow dx="-0" dy="0" flood-color="#000000" flood-opacity="0.333" in="SourceGraphic" result="Shadow" stdDeviation="32.3887"/>
</filter>
<filter color-interpolation-filters="sRGB" filterUnits="userSpaceOnUse" height="166.848" id="Filter_36" width="165.786" x="305.4" y="252.521">
<feDropShadow dx="-0" dy="0" flood-color="#000000" flood-opacity="0.333" in="SourceGraphic" result="Shadow" stdDeviation="32.3887"/>
</filter>
<filter color-interpolation-filters="sRGB" filterUnits="userSpaceOnUse" height="170.835" id="Filter_37" width="165.459" x="333.886" y="214.907">
<feDropShadow dx="-0" dy="0" flood-color="#000000" flood-opacity="0.333" in="SourceGraphic" result="Shadow" stdDeviation="32.3887"/>
</filter>
<filter color-interpolation-filters="sRGB" filterUnits="userSpaceOnUse" height="172.03" id="Filter_38" width="165.476" x="328.018" y="216.714">
<feDropShadow dx="-0" dy="0" flood-color="#000000" flood-opacity="0.333" in="SourceGraphic" result="Shadow" stdDeviation="32.3887"/>
</filter>
</defs>
<g id="Layer-13">
<g opacity="1">
<path d="M320.468 252.178C320.468 232.674 320.25 211.497 323.047 192.281C323.876 186.585 314.324 182.301 322.31 174.986C348.396 151.091 339.133 195.796 344.045 196.921C351.34 198.591 358.753 194.446 366.148 195.655C394.263 200.254 423.371 198.811 451.613 202.404C482.743 206.365 518.525 200.437 549.235 196.921C550.983 196.72 558.433 196.512 559.549 195.233C560.586 194.047 558.751 188.944 559.181 187.219C560.654 181.317 573.737 179.999 577.232 183.001C583.682 188.54 574.071 200.628 573.548 206.622C571.896 225.537 569.909 264.091 577.232 280.862" fill="#fff0b1" fill-rule="nonzero" opacity="1" stroke="none"/>
<path d="M517.207 348.153C515.352 349.08 522.477 339.714 523.941 338.25C529.828 332.363 535.799 327.325 540.974 320.425C551.298 306.66 549.313 290.29 558.799 276.06C559.675 274.746 570.855 264.969 572.323 264.969C572.365 264.969 580.359 275.456 580.585 276.06C584.48 286.445 589.194 304.423 587.319 315.672C584.924 330.043 567.762 344.923 558.799 355.679C554.61 360.706 553.106 367.413 549.689 373.108C542.65 384.838 527.616 391.784 516.415 399.252" fill="#ffffd7" fill-rule="nonzero" opacity="1" stroke="none"/>
<path d="M265.674 322.009C265.674 320.102 285.236 291.677 288.253 287.151C297.894 272.69 306.484 256.245 318.754 243.975C320.543 242.186 353.482 244.371 358.761 244.371C371.405 244.371 393.9 242.986 406.363 244.371C438.362 247.926 467.127 240.657 498.696 244.371C511.618 245.891 517.718 260.324 530.675 261.404C538.1 262.023 552.112 255.465 559.591 255.465C561.584 255.465 572.884 265.103 573.852 266.553C574.127 266.967 572.749 268.792 572.663 268.93C568.096 276.237 563.611 283.476 559.591 291.113C551.798 305.92 539.264 324.908 527.506 336.666C523.592 340.58 509.681 354.159 509.681 359.64" fill="#ffffd7" fill-rule="nonzero" opacity="1" stroke="none"/>
<path d="M301.969 301.375C299.476 301.406 296.974 301.619 294.5 302.031C271.222 305.911 195.024 423.639 183.406 446.875C117.67 578.348 230.11 549.275 331.406 559.938C354.333 562.351 403.837 576.708 425.031 567.625C449.501 557.138 487.416 504.137 499.188 480.594L495.688 488.25C502.982 476.579 567.505 375.882 567.062 372.344C561.556 328.295 442.925 337.2 417.031 338.562C378.731 340.578 339.361 300.907 301.969 301.375Z" fill="#a9e0ff" fill-rule="nonzero" opacity="1" stroke="none"/>
<path d="M204.357 497.298C268.291 497.298 331.548 509.829 395.453 509.829" fill="#000105" fill-opacity="0" fill-rule="nonzero" filter="url(#Filter)" opacity="0.337209" stroke="none"/>
<path d="M493.96 401.924C459.946 435.938 427.124 470.617 398.238 509.133" fill="#000105" fill-opacity="0" fill-rule="nonzero" filter="url(#Filter_2)" opacity="0.337209" stroke="none"/>
<path d="M378.049 349.364C386.498 346.196 351.329 359.368 356.12 362.243C362.086 365.822 378.71 361.326 381.182 370.597C382.643 376.076 372.664 396.388 377.701 396.703C384.97 397.157 393.508 383.373 401.371 387.305C405.796 389.517 399.188 415.711 400.675 415.499C408.23 414.42 409.291 398.021 417.034 395.31C423.276 393.126 428.159 410.601 430.609 408.886C437.429 404.112 433.431 391.661 439.66 385.912C443.833 382.059 453.514 400.098 460.544 393.57C475.26 379.905 448.918 362.77 480.037 359.806C482.004 359.619 483.982 359.574 485.954 359.458" fill="#000105" fill-opacity="0" fill-rule="nonzero" filter="url(#Filter_3)" opacity="0.337209" stroke="none"/>
<path d="M509.972 422.113C503.541 422.113 524.456 435.261 525.635 432.903C527.052 430.071 519.402 431.616 516.237 431.511C512.41 431.383 500.15 431.428 499.877 437.428C499.304 450.038 511.285 460.466 512.756 472.236" fill="#000105" fill-opacity="0" fill-rule="nonzero" filter="url(#Filter_4)" opacity="0.337209" stroke="none"/>
<path d="M453.583 495.906C453.583 494.629 452.345 491.767 453.583 492.077C454.019 492.186 472.659 534.882 457.76 516.79C455.985 514.635 454.216 512.413 452.538 510.177" fill="#000105" fill-opacity="0" fill-rule="nonzero" filter="url(#Filter_5)" opacity="0.337209" stroke="none"/>
<path d="M235.685 476.065C242.755 483.136 258.399 479.539 267.36 478.85C295.329 476.698 325.293 483.569 353.336 484.419C357.056 484.532 387.633 485.671 388.492 488.248C389.52 491.332 381.97 488.316 378.745 487.9C376.547 487.616 374.338 487.416 372.132 487.204C369.201 486.922 351.103 485.288 348.463 485.115C323.722 483.493 298.016 481.634 273.277 481.634C264.829 481.634 256.618 481.658 248.215 480.938C243.467 480.531 237.425 480.513 237.425 480.59C237.425 480.605 253.586 483.694 253.785 483.723C263.351 485.118 269.711 485.007 279.891 485.115C304.975 485.382 329.172 486.487 354.032 489.988C365.244 491.567 377.959 496.602 389.188 496.602C391.022 496.602 385.726 495.383 383.967 494.861C382.132 494.318 380.261 493.903 378.397 493.469C366.424 490.684 367.689 491.005 352.988 489.292C340.464 487.833 327.944 486.333 315.395 485.115C297.93 483.42 296.469 483.552 278.846 483.723C259.376 483.912 238.674 482.696 219.325 485.115" fill="#000105" fill-opacity="0" fill-rule="nonzero" filter="url(#Filter_6)" opacity="0.337209" stroke="none"/>
<path d="M207.142 491.729C216.711 485.987 242.179 490.452 253.089 492.077C285.895 496.963 320.229 496.315 353.336 498.342C367.583 499.214 382.353 500.568 396.498 502.519C401.12 503.157 415.543 506 415.294 506" fill="#000105" fill-opacity="0" fill-rule="nonzero" filter="url(#Filter_7)" opacity="0.337209" stroke="none"/>
<path d="M497.789 404.709C494.709 395.468 488.114 413.024 482.473 422.809C474.248 437.077 465.969 451.421 457.064 465.275" fill="#000105" fill-opacity="0" fill-rule="nonzero" filter="url(#Filter_8)" opacity="0.337209" stroke="none"/>
<path d="M420.167 547.073C419.633 554.015 420.019 560.998 420.167 567.958" fill="#000105" fill-opacity="0" fill-rule="nonzero" filter="url(#Filter_9)" opacity="0.337209" stroke="none"/>
<path d="M415.294 546.377C411.84 546.377 413.902 565.697 413.902 569.002" fill="#000105" fill-opacity="0" fill-rule="nonzero" filter="url(#Filter_10)" opacity="0.337209" stroke="none"/>
<path d="M413.902 546.725C410.696 550.999 413.078 557.396 413.205 562.737" fill="#000105" fill-opacity="0" fill-rule="nonzero" filter="url(#Filter_11)" opacity="0.337209" stroke="none"/>
<path d="M421.907 547.073C421.907 552.171 423.619 557.146 425.04 562.041" fill="#000105" fill-opacity="0" fill-rule="nonzero" filter="url(#Filter_12)" opacity="0.337209" stroke="none"/>
<path d="M425.04 541.504C422.112 544.433 426.387 549.691 427.477 553.687" fill="#000105" fill-opacity="0" fill-rule="nonzero" filter="url(#Filter_13)" opacity="0.337209" stroke="none"/>
<path d="M296.25 343.098C289.515 340.853 276.959 349.083 270.493 351.104C270.036 351.247 269.1 350.974 269.1 351.452C269.1 356.144 303.309 361.9 306.345 363.635" fill="#000105" fill-opacity="0" fill-rule="nonzero" filter="url(#Filter_14)" opacity="0.337209" stroke="none"/>
<path d="M242.646 398.791C246.098 397.928 245.8 397.905 251.696 398.095C253.348 398.148 256.096 399.211 257.614 399.835C279.785 408.965 239.629 410.955 253.437 419.676C261.959 425.059 283.772 417.37 287.897 427.682" fill="#000105" fill-opacity="0" fill-rule="nonzero" filter="url(#Filter_15)" opacity="0.337209" stroke="none"/>
<path d="M193.567 510.177C193.567 504.894 182.667 537.251 185.213 537.675C194.517 539.226 199.497 515.052 207.838 516.442C208.893 516.618 208.169 518.57 208.534 519.575C212.068 529.292 202.105 543.585 208.186 551.947C209.041 553.121 211.191 551.805 211.667 551.25C217.611 544.316 223.676 525.449 233.248 523.056C239.595 521.469 238.081 545.19 241.95 544.637C244.212 544.314 243.851 540.479 244.735 538.371C247.08 532.778 250.071 525.756 255.177 522.012C261.413 517.438 262.862 557.706 276.062 548.466" fill="#000105" fill-opacity="0" fill-rule="nonzero" filter="url(#Filter_16)" opacity="0.337209" stroke="none"/>
<path d="M566.013 372.337C566.013 368.051 557.446 373.481 555.57 374.078C553.428 374.759 542.691 374.207 542.691 377.21C542.691 382.599 559.421 390.097 555.57 395.659C549.841 403.934 532.597 405.227 532.597 417.588C532.597 431.043 521.504 420.295 516.237 429.074C512.067 436.025 520.751 443.547 518.326 449.611C515.975 455.488 504.203 450.357 500.922 456.921C498.685 461.393 502.375 466.339 500.574 470.844C498.544 475.917 491.273 472.835 488.043 476.065C485.142 478.965 490.264 484.534 489.783 487.9C489.313 491.188 474.399 498.592 471.335 500.431" fill="#000105" fill-opacity="0" fill-rule="nonzero" filter="url(#Filter_17)" opacity="0.337209" stroke="none"/>
<path d="M214.8 500.779C237.075 500.779 259.785 503.22 281.979 504.608C323.628 507.211 366.304 505.029 407.636 511.917" fill="#000105" fill-opacity="0" fill-rule="nonzero" filter="url(#Filter_18)" opacity="0.337209" stroke="none"/>
<path d="M465.292 234.761C464.197 233.774 460.434 229.509 459.578 232.932C458.97 235.365 460.795 237.947 461.178 240.246C462.391 247.522 460.678 260.299 458.893 267.442C458.056 270.79 452.76 274.258 453.408 277.498C453.762 279.269 460.444 276.338 462.549 277.04C470.553 279.708 482.577 280.949 490.888 280.697C495.965 280.543 494.286 280.426 499.116 280.24C509.26 279.85 520.037 284.551 529.969 282.068C532.558 281.421 535.04 287.053 537.51 284.582C538.398 283.695 539.958 263.136 540.71 260.129C542.479 253.05 542.782 245.006 545.509 238.189C546.823 234.903 552.251 229.276 550.309 225.391C548.587 221.948 537.749 229.73 534.082 230.647C526.504 232.541 517.409 230.011 509.629 230.875C500.881 231.847 491.717 232.302 482.889 232.932C478.902 233.217 468.047 237.244 465.292 234.761Z" fill="#a9e0ff" fill-rule="nonzero" opacity="1" stroke="none"/>
<path d="M339.024 225.848C339.029 226.165 335.216 221.16 333.882 225.162C332.592 229.03 335.681 237.363 335.253 242.074C334.519 250.142 320.354 273.503 322.226 278.183C323.944 282.477 338.186 277.955 342.338 277.955C360.01 277.955 378.003 283.985 395.587 280.469C400.921 279.402 403.041 285.128 407.928 280.24C409.08 279.089 407.029 274.176 407.243 272.47C408.007 266.359 409.825 260.361 410.442 254.186C411.105 247.565 424.672 222.693 418.213 217.849C415.4 215.739 410.396 220.104 407.471 220.591C399.006 222.002 390.582 223.925 381.646 222.648C371.267 221.165 358.959 221.726 348.508 223.334C346.699 223.612 338.993 223.995 339.024 225.848Z" fill="#a9e0ff" fill-rule="nonzero" opacity="1" stroke="none"/>
</g>
<path d="M395.942 378.325C382.178 380.503 363.069 386.292 349.617 389.979C346.832 390.743 341.571 392.649 338.755 392.401C335.866 392.145 324.204 381.941 323.162 382.686C323 382.802 331.348 393.347 331.202 395.001C330.904 398.368 319.58 396.012 319.355 401.56C319.286 403.271 329.881 405.46 331.699 408.51C333.011 410.711 330.224 420.851 333.339 421.837C334.322 422.149 337.956 413.259 338.821 412.068C343.155 406.105 347.179 404.043 353.337 400.167C364.638 393.053 393.057 390.387 406.363 388.282" fill="#ffe193" fill-rule="nonzero" filter="url(#Filter_19)" stroke="#ffe193" stroke-linecap="round" stroke-linejoin="round" stroke-width="2.39953"/>
<path d="M386.134 365.684C385.899 364.194 369.368 366.943 367.569 367.227C355.94 369.067 344.952 374.788 333.217 376.644C332.042 376.83 321.915 381.405 321.694 380.81C320.885 378.621 325.493 376.689 325.169 374.638C324.62 371.169 311.902 368.573 312.283 364.26C312.454 362.317 328.829 367.193 329.352 365.542C330.335 362.439 323.064 354.992 325.319 351.89C325.488 351.657 327.005 353.719 327.015 353.73C328.887 355.884 335.344 364 338.302 364.361C350.812 365.887 371.048 359.488 383.23 357.561" fill="#ffe193" fill-rule="nonzero" filter="url(#Filter_20)" stroke="#ffe193" stroke-linecap="round" stroke-linejoin="round" stroke-width="2.39953"/>
<path d="M469.16 223.746C473.981 220.654 450.276 194.425 452.945 191.116C455.042 188.517 483.706 202.701 490.249 202" fill="#ffe193" fill-rule="nonzero" filter="url(#Filter_21)" stroke="#ffe193" stroke-linecap="round" stroke-linejoin="round" stroke-width="2.39953"/>
<path d="M483.75 202.094C482.714 202.024 481.809 202.02 481.312 202.219C475.903 204.383 469.692 208.375 468.781 214.75C466.905 227.882 477.829 241.684 474.625 254.5C472.951 261.195 467.543 267.788 464.469 273.938C449.823 303.229 411.855 296.658 393.406 319.719C387.209 327.466 385.455 335.491 383.906 344.781C382.192 355.064 383.496 364.902 391.031 372.438C397.053 378.459 400.622 387.618 410.031 389.5C430.227 393.539 448.374 385.866 459.281 367.688C462.738 361.927 465.274 355.371 464.469 348.438C465.013 350.07 465.707 351.679 466.406 353.219C471.117 363.582 479.566 375.003 487.562 383C490.14 385.577 496.893 383.789 496 380.219C495.965 380.079 496 379.637 496 379.781C496 384.348 506.872 390.951 511.125 390.344C512.957 390.082 515.249 385.375 515.656 385.375C517.414 385.375 517.257 388.697 518.688 389.719C525.515 394.596 533.8 392.713 535.094 383.656C535.979 377.456 524.651 364.408 520.844 360.125C504.413 341.64 482.137 331.522 473.094 307.406C465.684 287.646 496.402 255.786 501.406 237.438C504.562 225.866 503.961 216.011 499.656 205.25C498.012 201.139 485.62 201.827 488.344 202.562C491.081 203.302 486.859 202.304 483.75 202.094Z" fill="#fdfdff" fill-rule="nonzero" filter="url(#Filter_22)" stroke="#fdfdff" stroke-linecap="round" stroke-linejoin="round" stroke-width="8.66356"/>
<path d="M489.576 214.122C488.396 213.284 485.166 207.147 489.706 208.963C492.886 210.235 490.933 214.799 487.877 214.188C485.314 213.675 485.09 209.203 487.616 208.571C491.2 207.675 493.486 213.407 489.837 214.971C487.098 216.145 484.393 211.17 486.571 209.355C491.733 205.053 493.055 216.598 489.576 214.122Z" fill="#000105" fill-rule="nonzero" filter="url(#Filter_23)" stroke="#000208" stroke-linecap="round" stroke-linejoin="round" stroke-width="2.89452"/>
<path d="M492.405 206.258C490.77 205.422 492.053 209.857 491.067 211.44C489.805 213.468 487.876 215.692 485.636 216.709C485.266 216.876 484.311 216.717 484.479 217.086C487.282 223.264 500.13 210.207 492.405 206.258Z" fill="#e5e5e5" fill-rule="nonzero" filter="url(#Filter_24)" stroke="#e5e5e5" stroke-linecap="round" stroke-linejoin="round" stroke-width="2.89452"/>
<path d="M503.921 210.236C504.467 209.58 505.236 208.182 506.103 208.182" fill="#e5e5e5" fill-rule="nonzero" filter="url(#Filter_25)" stroke="#e5e5e5" stroke-linecap="round" stroke-linejoin="round" stroke-width="2.89452"/>
<path d="M503.792 217.683C504.635 218.104 505.383 218.325 506.36 218.325" fill="#e5e5e5" fill-rule="nonzero" filter="url(#Filter_26)" stroke="#e5e5e5" stroke-linecap="round" stroke-linejoin="round" stroke-width="2.89452"/>
<path d="M496.089 199.451C496.089 198.108 496.316 196.972 496.731 195.727" fill="#e5e5e5" fill-rule="nonzero" filter="url(#Filter_27)" stroke="#e5e5e5" stroke-linecap="round" stroke-linejoin="round" stroke-width="2.89452"/>
<path d="M498.785 200.221L500.069 198.167" fill="#e5e5e5" fill-rule="nonzero" filter="url(#Filter_28)" stroke="#e5e5e5" stroke-linecap="round" stroke-linejoin="round" stroke-width="2.89452"/>
<path d="M493.264 252.863C498.336 247.792 491.279 252.849 495.96 254.019" fill="#e5e5e5" fill-rule="nonzero" filter="url(#Filter_29)" stroke="#e5e5e5" stroke-linecap="round" stroke-linejoin="round" stroke-width="2.89452"/>
<path d="M470.923 258.77C470.923 258.206 470.991 260.138 471.051 260.439C471.462 262.49 470.777 262.548 468.869 261.594" fill="#e5e5e5" fill-rule="nonzero" filter="url(#Filter_30)" stroke="#e5e5e5" stroke-linecap="round" stroke-linejoin="round" stroke-width="2.89452"/>
<path d="M468.227 265.831C469.219 265.831 470.21 265.945 471.18 265.703" fill="#e5e5e5" fill-rule="nonzero" filter="url(#Filter_31)" stroke="#e5e5e5" stroke-linecap="round" stroke-linejoin="round" stroke-width="2.89452"/>
<path d="M508.926 354.943C509.102 353.207 508.928 354.39 509.828 351.471" fill="#e5e5e5" fill-rule="nonzero" filter="url(#Filter_32)" stroke="#e5e5e5" stroke-linecap="round" stroke-linejoin="round" stroke-width="2.89452"/>
<path d="M459.499 344.975C460.732 345.531 460.031 345.196 461.587 346.01" fill="#e5e5e5" fill-rule="nonzero" filter="url(#Filter_33)" stroke="#e5e5e5" stroke-linecap="round" stroke-linejoin="round" stroke-width="2.89452"/>
<path d="M459.655 348.829C460.864 349.374 460.167 349.099 461.771 349.593" fill="#e5e5e5" fill-rule="nonzero" filter="url(#Filter_34)" stroke="#e5e5e5" stroke-linecap="round" stroke-linejoin="round" stroke-width="2.89452"/>
<path d="M461.002 354.449L463.936 352.555" fill="#e5e5e5" fill-rule="nonzero" filter="url(#Filter_35)" stroke="#e5e5e5" stroke-linecap="round" stroke-linejoin="round" stroke-width="2.89452"/>
<path d="M387.875 334.94C387.761 336.062 387.721 335.33 388.767 336.95" fill="#e5e5e5" fill-rule="nonzero" filter="url(#Filter_36)" stroke="#e5e5e5" stroke-linecap="round" stroke-linejoin="round" stroke-width="2.89452"/>
<path d="M416.926 297.326C415.898 298.947 416.415 301.515 416.589 303.323" fill="#e5e5e5" fill-rule="nonzero" filter="url(#Filter_37)" stroke="#e5e5e5" stroke-linecap="round" stroke-linejoin="round" stroke-width="2.89452"/>
<path d="M410.437 299.133C410.888 302.257 410.568 299.872 411.075 306.325" fill="#e5e5e5" fill-rule="nonzero" filter="url(#Filter_38)" stroke="#e5e5e5" stroke-linecap="round" stroke-linejoin="round" stroke-width="2.89452"/>
</g>
</svg>
